<?xml version="1.0" encoding="utf-8"?>
<!-- Generator: Adobe Illustrator 17.0.0, SVG Export Plug-In . SVG Version: 6.00 Build 0)  -->
<!DOCTYPE svg PUBLIC "-//W3C//DTD SVG 1.1//EN" "http://www.w3.org/Graphics/SVG/1.1/DTD/svg11.dtd">
<svg version="1.1" id="图层_1" xmlns="http://www.w3.org/2000/svg" xmlns:xlink="http://www.w3.org/1999/xlink" x="0px" y="0px"
	 width="1869.701px" height="280.312px" viewBox="0 0 1869.701 280.312" enable-background="new 0 0 1869.701 280.312"
	 xml:space="preserve">
<g>
	<path fill="#00A0E9" d="M613.413,0h80.717l95.363,280.312h-75.276l-60.45-185.834l-66.081,185.834h-75.402L613.413,0z"/>
	<path fill="#036EB8" d="M606.217,280.312h89.344l-42.684-133.434L606.217,280.312z"/>
	<path fill="#00A0E9" d="M74.509,277.208H0V0.442h74.96L74.509,277.208z"/>
	<path fill="#00A0E9" d="M315.075,276.545h-74.96v-1.326h-1.326V57.883h-66.974l-0.893,218.662H95.971V-0.221h219.547
		L315.075,276.545z"/>
	<path fill="#00A0E9" d="M336.768,0h219.547v58.104h-72.74l-0.442,219.105h-74.509V58.104h-71.856V0z"/>
	<path fill="#00A0E9" d="M1029.848,277.208h-74.96v-1.326h-1.326V58.546h-66.974l-0.893,218.662h-74.951V0.442L1173.108,0
		l0.884-0.884h0.442l-0.442,1.326l-0.884,276.766h-74.518l0.442-208.014h-0.442V58.546h-68.3L1029.848,277.208z"/>
	<path fill="#00A0E9" d="M1217.423,217.778h119.754l0.442-50.569h-102.455c-21.883,0-35.039-9.312-39.479-27.937
		c0-4.728,0.072-9.764,0.226-15.079c0.144-5.324,0.226-10.35,0.226-15.088h-0.451V32.377c2.364-11.532,6.804-19.807,13.31-24.833
		C1215.492,2.518,1224.218,0,1235.164,0h180.961c-4.44,13.012-8.428,24.328-11.974,33.929c-3.546,9.61-6.651,18.264-9.313,25.952
		V59.43h-44.36v0.451h-75.393v49.224l102.013-0.442c10.937,0,19.654,2.518,26.169,7.544c6.497,5.026,10.928,13.301,13.301,24.833
		c0,0.596-0.072,1.263-0.217,2.003c-0.153,0.74-0.226,1.399-0.226,1.994h0.884v103.339c-4.431,18.634-17.596,27.946-39.47,27.946
		l-57.219,0.884v0.442l-124.635,0.884L1217.423,217.778z"/>
	<path fill="#00A0E9" d="M1495.43,277.208V136.61L1423.583,0.884h74.96l34.146,65.205l34.597-65.205h74.96L1570.39,136.61
		l-0.442,140.598H1495.43z"/>
	<path fill="#00A0E9" d="M1670.557,217.778h119.754l0.442-50.569h-102.455c-21.882,0-35.039-9.312-39.479-27.937
		c0-4.728,0.072-9.764,0.226-15.079c0.144-5.324,0.226-10.35,0.226-15.088h-0.451V32.377c2.364-11.532,6.804-19.807,13.31-24.833
		C1668.626,2.518,1677.352,0,1688.298,0h180.961c-4.44,13.012-8.428,24.328-11.974,33.929c-3.546,9.61-6.651,18.264-9.313,25.952
		V59.43h-44.361v0.451h-75.393v49.224l102.013-0.442c10.937,0,19.654,2.518,26.169,7.544c6.497,5.026,10.928,13.301,13.301,24.833
		c0,0.596-0.072,1.263-0.217,2.003c-0.153,0.74-0.226,1.399-0.226,1.994h0.884v103.339c-4.431,18.634-17.596,27.946-39.47,27.946
		l-57.219,0.884v0.442l-124.635,0.884L1670.557,217.778z"/>
</g>
</svg>
