<?xml version="1.0" encoding="utf-8"?>
<!-- Generator: Adobe Illustrator 17.0.0, SVG Export Plug-In . SVG Version: 6.00 Build 0)  -->
<!DOCTYPE svg PUBLIC "-//W3C//DTD SVG 1.1//EN" "http://www.w3.org/Graphics/SVG/1.1/DTD/svg11.dtd">
<svg version="1.1" xmlns="http://www.w3.org/2000/svg" xmlns:xlink="http://www.w3.org/1999/xlink" x="0px" y="0px"
	 width="709.661px" height="567.929px" viewBox="0 0 709.661 567.929" enable-background="new 0 0 709.661 567.929"
	 xml:space="preserve">
<g id="图层_1">
</g>
<g id="图层_2">
	<g>
		<g>
			<path fill="#FFFFFF" d="M480.627,121.488c-4.67,0-9.085,2.705-11.049,7.233c-2.638,6.082,0.177,13.122,6.289,15.741
				c19.494,8.349,32.072,28.351,32.072,50.956c0,21.535-11.725,41.202-29.627,49.998c-8.879,3.656-14.621,12.196-14.621,21.743
				c0,9.546,5.983,18.342,16.374,22.333l3.024,0.766c22.598,6.194,42.897,20.45,57.131,40.197
				c14.508,20.114,22.18,44.363,22.18,70.128v6.865h-4.52c-6.659,0-12.063,5.364-12.063,11.973c0,6.609,5.404,11.973,12.063,11.973
				h16.583c6.659,0,12.063-5.364,12.063-11.973v-18.837c-0.016-30.794-9.232-59.848-26.7-84.065
				c-17.436-24.185-42.43-41.697-70.546-49.392L488.783,267l0.016-0.032c26.282-12.899,43.25-40.979,43.25-71.549
				c0-32.167-18.304-60.806-46.612-72.939C483.863,121.807,482.23,121.488,480.627,121.488L480.627,121.488z"/>
		</g>
		<g>
			<path fill="#FFFFFF" d="M227.491,121.497c-1.595,0-3.215,0.315-4.772,0.982c-28.324,12.149-46.628,40.788-46.628,72.955
				c0,30.363,16.76,58.267,43.701,71.485l-1.126,0.303c-27.907,7.63-52.901,25.143-70.337,49.328
				c-17.468,24.185-26.684,53.255-26.684,84.064v18.837c0,6.609,5.404,11.973,12.063,11.973h16.583
				c6.659,0,12.063-5.364,12.063-11.973c0-6.609-5.404-11.973-12.063-11.973h-4.536v-6.864c0-25.813,7.672-50.062,22.164-70.145
				c14.251-19.731,34.533-34.002,57.067-40.165l4.536-1.261c8.943-3.528,14.942-12.308,14.942-21.87s-5.742-18.103-14.411-21.631
				c-18.127-8.908-29.836-28.575-29.836-50.11c0-22.605,12.578-42.608,32.072-50.956c6.112-2.618,8.927-9.658,6.289-15.74
				C236.612,124.204,232.161,121.497,227.491,121.497L227.491,121.497z"/>
		</g>
		<g>
			<path fill="#FFFFFF" d="M354.151,54.123c-62.15,0-112.735,54.564-112.735,121.644c0,35.376,14.187,68.293,38.892,91.472
				c-31.783,14.958-58.966,39.016-78.781,69.985c-21.409,33.444-32.732,72.635-32.732,113.342v39.255
				c0,12.978,9.844,23.515,21.939,23.515h326.801c12.112,0,21.955-10.536,21.955-23.515v-39.255
				c0-40.723-11.323-79.914-32.731-113.359c-19.799-30.97-46.982-55.027-78.765-69.969c24.705-23.195,38.892-56.113,38.892-91.472
				C466.885,108.687,416.301,54.123,354.151,54.123L354.151,54.123z M192.954,489.39v-38.824c0-36.158,10.02-70.895,28.967-100.491
				c18.336-28.639,43.685-50.525,73.312-63.328l11.935-5.156c0.08-0.032,0.113-0.112,0.193-0.144
				c1.544-0.702,2.976-1.66,4.134-3.033c0.097-0.096,0.113-0.24,0.193-0.335c0.273-0.335,0.386-0.734,0.627-1.102
				c0.788-1.229,1.367-2.49,1.656-3.847c0.065-0.256,0.274-0.447,0.306-0.718c0.048-0.351-0.128-0.67-0.113-1.006
				c0.081-1.325-0.064-2.586-0.402-3.863c-0.144-0.527-0.208-1.022-0.418-1.532c-0.708-1.66-1.673-3.225-3.153-4.47l-9.876-8.397
				c-22.084-18.741-34.742-46.933-34.742-77.36c0-53.877,39.76-97.698,88.608-97.698c48.848,0,88.609,43.821,88.609,97.698
				c0,30.411-12.659,58.619-34.758,77.377l-9.86,8.381c-1.464,1.245-2.445,2.81-3.152,4.47c-0.209,0.495-0.273,1.005-0.418,1.532
				c-0.354,1.277-0.499,2.538-0.402,3.863c0.016,0.351-0.161,0.671-0.112,1.006c0.048,0.271,0.257,0.462,0.306,0.718
				c0.289,1.357,0.868,2.634,1.656,3.847c0.241,0.367,0.354,0.767,0.627,1.102c0.081,0.112,0.097,0.24,0.193,0.335
				c1.222,1.405,2.686,2.443,4.279,3.145c0.016,0.016,0.032,0.032,0.048,0.032l11.95,5.156
				c29.611,12.787,54.96,34.689,73.312,63.312c18.947,29.597,28.968,64.35,28.968,100.508l-0.113,38.824H192.954L192.954,489.39z"/>
		</g>
	</g>
</g>
</svg>
