<?xml version="1.0" encoding="utf-8"?>
<!-- Generator: Adobe Illustrator 17.0.0, SVG Export Plug-In . SVG Version: 6.00 Build 0)  -->
<!DOCTYPE svg PUBLIC "-//W3C//DTD SVG 1.1//EN" "http://www.w3.org/Graphics/SVG/1.1/DTD/svg11.dtd">
<svg version="1.1" xmlns="http://www.w3.org/2000/svg" xmlns:xlink="http://www.w3.org/1999/xlink" x="0px" y="0px"
	 width="566.929px" height="566.929px" viewBox="0 0 566.929 566.929" enable-background="new 0 0 566.929 566.929"
	 xml:space="preserve">
<g id="图层_1" display="none">
	<rect x="-0.007" y="0.014" display="inline" fill="#999999" width="566.929" height="566.929"/>
</g>
<g id="图层_2">
	<g>
		<path fill-rule="evenodd" clip-rule="evenodd" fill="#313232" d="M472.196,56.707H94.719c-20.994,0-38.033,17.344-38.033,38.744
			v297.032c0,21.399,17.039,38.743,38.033,38.743h98.573v64.572c0,7.142,7.848,14.258,14.858,14.258c1.433,0-1.293,0.439,0,0
			c4.057,0.865,10.294-2.247,13.451-5.45l72.02-73.38h178.575c20.994,0,38.033-17.344,38.033-38.743V95.45
			C510.229,74.051,493.191,56.707,472.196,56.707 M484.874,379.567c0,14.258-11.36,25.829-25.355,25.829h-173.53h-2.573
			c-1.027,0.568-3.461,3.229-4.336,4.107l-60.434,61.576v-52.768c0-7.129-5.667-12.915-12.677-12.915h-98.574
			c-13.995,0-25.355-11.571-25.355-25.829V108.365c0-14.258,11.36-25.829,25.355-25.829h352.123
			c13.995,0,25.355,11.571,25.355,25.829V379.567 M396.838,237.508 M269.268,237.508c0,14.266,11.423,25.829,25.514,25.829
			c14.091,0,25.514-11.563,25.514-25.829c0-14.265-11.423-25.828-25.514-25.828C280.691,211.68,269.268,223.244,269.268,237.508
			 M192.727,237.508 M371.324,237.508c0,14.266,11.423,25.829,25.514,25.829c14.091,0,25.513-11.563,25.513-25.829
			c0-14.265-11.422-25.828-25.513-25.828C382.747,211.68,371.324,223.244,371.324,237.508 M294.782,237.508 M167.213,237.508
			c0,14.266,11.422,25.829,25.513,25.829c14.092,0,25.514-11.563,25.514-25.829c0-14.265-11.422-25.828-25.514-25.828
			C178.636,211.68,167.213,223.244,167.213,237.508"/>
	</g>
</g>
</svg>
