<?xml version="1.0" encoding="utf-8"?>
<!-- Generator: Adobe Illustrator 17.0.0, SVG Export Plug-In . SVG Version: 6.00 Build 0)  -->
<!DOCTYPE svg PUBLIC "-//W3C//DTD SVG 1.1//EN" "http://www.w3.org/Graphics/SVG/1.1/DTD/svg11.dtd">
<svg version="1.1" xmlns="http://www.w3.org/2000/svg" xmlns:xlink="http://www.w3.org/1999/xlink" x="0px" y="0px"
	 width="566.929px" height="566.929px" viewBox="0 0 566.929 566.929" enable-background="new 0 0 566.929 566.929"
	 xml:space="preserve">
<g id="图层_1" display="none">
	<rect x="0.02" y="0.014" display="inline" fill="#999999" width="566.929" height="566.929"/>
</g>
<g id="图层_2">
	<g>
		<path fill-rule="evenodd" clip-rule="evenodd" fill="#313232" d="M419.218,124.655v-9.202c0-32.393-28.887-58.747-64.393-58.747
			h-142.69c-35.507,0-64.393,26.353-64.393,58.747v9.202H56.713v25.475h453.543v-25.475H419.218L419.218,124.655z M172.322,115.455
			c0-18.835,17.855-34.156,39.803-34.156h142.71c21.947,0,39.803,15.323,39.803,34.156v9.203H172.322V115.455L172.322,115.455z"/>
		<path fill-rule="evenodd" clip-rule="evenodd" fill="#313232" d="M435.197,451.478c0,18.825-17.913,34.14-39.93,34.14H173.045
			c-22.017,0-39.93-15.315-39.93-34.14V181.172H108.48v270.306c0,32.407,28.964,58.772,64.564,58.772h222.222
			c35.601,0,64.564-26.365,64.564-58.772V181.172h-24.634V451.478L435.197,451.478z"/>
		<polygon fill-rule="evenodd" clip-rule="evenodd" fill="#313232" points="335.119,181.172 360.602,181.172 360.602,421.052 
			335.119,421.052 335.119,181.172 		"/>
		<polygon fill-rule="evenodd" clip-rule="evenodd" fill="#313232" points="271.414,181.172 296.896,181.172 296.896,421.052 
			271.414,421.052 271.414,181.172 		"/>
		<polygon fill-rule="evenodd" clip-rule="evenodd" fill="#313232" points="207.71,181.172 233.19,181.172 233.19,421.052 
			207.71,421.052 207.71,181.172 		"/>
	</g>
</g>
</svg>
