<?xml version="1.0" encoding="utf-8"?>
<!-- Generator: Adobe Illustrator 17.0.0, SVG Export Plug-In . SVG Version: 6.00 Build 0)  -->
<!DOCTYPE svg PUBLIC "-//W3C//DTD SVG 1.1//EN" "http://www.w3.org/Graphics/SVG/1.1/DTD/svg11.dtd">
<svg version="1.1" id="图层_1" xmlns="http://www.w3.org/2000/svg" xmlns:xlink="http://www.w3.org/1999/xlink" x="0px" y="0px"
	 width="692px" height="534px" viewBox="0 0 692 534" enable-background="new 0 0 692 534" xml:space="preserve">
<g>
	<path fill-rule="evenodd" clip-rule="evenodd" fill="#FFFFFF" stroke="#FFFFFF" stroke-width="20" stroke-miterlimit="10" d="
		M598.978,476.277c-6.659,25.222-17.189,41.62-38.707,41.62H57.915H29.822H16.295l0.624-462.068
		c0-20.602,17.356-37.375,38.748-37.375h168.728c21.351,0,41.62,21.018,41.62,41.62h291.342v41.62H224.396
		c0-23.599-16.356-41.62-41.62-41.62H99.535c-23.515,0-41.62,18.978-41.62,41.62v243.936l41.62-160.695
		c4.287-16.856,22.766-39.165,41.62-41.62h499.443c29.715,0,43.866,20.561,40.33,37.666L598.978,476.277L598.978,476.277z
		 M141.156,184.936l-83.24,291.341h499.443l83.24-291.341H141.156L141.156,184.936z"/>
</g>
</svg>
