<?xml version="1.0" encoding="utf-8"?>
<!-- Generator: Adobe Illustrator 17.0.0, SVG Export Plug-In . SVG Version: 6.00 Build 0)  -->
<!DOCTYPE svg PUBLIC "-//W3C//DTD SVG 1.1//EN" "http://www.w3.org/Graphics/SVG/1.1/DTD/svg11.dtd">
<svg version="1.1" xmlns="http://www.w3.org/2000/svg" xmlns:xlink="http://www.w3.org/1999/xlink" x="0px" y="0px"
	 width="709.661px" height="567.929px" viewBox="0 0 709.661 567.929" enable-background="new 0 0 709.661 567.929"
	 xml:space="preserve">
<g id="图层_1">
</g>
<g id="图层_2">
	<g>
		<path fill-rule="evenodd" clip-rule="evenodd" fill="#FFFFFF" d="M584.204,477.636c-6.122,23.19-15.805,38.268-35.589,38.268
			H86.724H60.893H48.456L49.03,91.055c0-18.943,15.958-34.364,35.627-34.364h155.137c19.631,0,38.268,19.325,38.268,38.268h267.874
			v38.267H239.795c0-21.698-15.039-38.267-38.267-38.267h-76.536c-21.621,0-38.268,17.45-38.268,38.267v224.287l38.268-147.751
			c3.942-15.498,20.933-36.01,38.268-38.268h459.213c27.322,0,40.332,18.904,37.081,34.632L584.204,477.636L584.204,477.636z
			 M163.259,209.762L86.724,477.636h459.213l76.535-267.874H163.259L163.259,209.762z"/>
	</g>
</g>
</svg>
