<?xml version="1.0" encoding="utf-8"?>
<!-- Generator: Adobe Illustrator 17.0.0, SVG Export Plug-In . SVG Version: 6.00 Build 0)  -->
<!DOCTYPE svg PUBLIC "-//W3C//DTD SVG 1.1//EN" "http://www.w3.org/Graphics/SVG/1.1/DTD/svg11.dtd">
<svg version="1.1" xmlns="http://www.w3.org/2000/svg" xmlns:xlink="http://www.w3.org/1999/xlink" x="0px" y="0px"
	 width="566.929px" height="566.929px" viewBox="0 0 566.929 566.929" enable-background="new 0 0 566.929 566.929"
	 xml:space="preserve">
<g id="图层_1" display="none">
	<rect x="-0.007" y="0.06" display="inline" fill="#999999" width="566.929" height="566.929"/>
</g>
<g id="图层_2">
	<g>
		<g>
			<path fill-rule="evenodd" clip-rule="evenodd" fill="#313232" d="M283.457,287.204c121.203,0,219.821,34.663,222.941,77.844
				c0.051-0.701,0.078-1.404,0.078-2.109c0-44.156-99.849-79.953-223.019-79.953c-123.17,0-223.019,35.797-223.019,79.953
				c0,0.705,0.027,1.408,0.078,2.109C63.636,321.867,162.255,287.204,283.457,287.204z"/>
			<path fill-rule="evenodd" clip-rule="evenodd" fill="#313232" d="M283.457,442.89c-121.202,0-219.821-34.662-222.941-77.843
				c-0.051,0.701-0.078,1.404-0.078,2.109c0,44.156,99.849,79.952,223.019,79.952c123.17,0,223.019-35.796,223.019-79.952
				c0-0.705-0.027-1.408-0.078-2.109C503.279,408.229,404.66,442.89,283.457,442.89z"/>
		</g>
		<g>
			<path fill-rule="evenodd" clip-rule="evenodd" fill="#313232" d="M283.457,123.519c121.203,0,219.821,29.408,222.941,66.044
				c0.051-0.595,0.078-1.191,0.078-1.79c0-37.463-99.849-67.833-223.019-67.833c-123.17,0-223.019,30.371-223.019,67.833
				c0,0.598,0.027,1.195,0.078,1.79C63.636,152.928,162.255,123.519,283.457,123.519z"/>
			<path fill-rule="evenodd" clip-rule="evenodd" fill="#313232" d="M283.457,255.606c-121.202,0-219.821-29.408-222.941-66.043
				c-0.051,0.595-0.078,1.191-0.078,1.79c0,37.463,99.849,67.833,223.019,67.833c123.17,0,223.019-30.37,223.019-67.833
				c0-0.598-0.027-1.195-0.078-1.79C503.279,226.198,404.66,255.606,283.457,255.606z"/>
		</g>
		<path fill="#313232" d="M345.902,189.563c0-11.532-28.013-20.914-62.444-20.914c-34.432,0-62.444,9.382-62.444,20.914
			c0,11.532,28.012,20.914,62.444,20.914C317.889,210.477,345.902,201.094,345.902,189.563z"/>
		<g>
			<path fill="#313232" d="M483.399,345.738c0-37.204-89.696-67.472-199.942-67.472c-110.248,0-199.942,30.269-199.942,67.472
				c0,37.203,89.694,67.472,199.942,67.472C393.704,413.21,483.399,382.942,483.399,345.738z"/>
			<g>
				<path fill="#313232" d="M283.458,257.857c-83.892-0.426-151.906-14.027-200.567-37.804l0.778,128.565h399.577l0.692-128.961
					C445.573,238.246,393.762,258.417,283.458,257.857z"/>
			</g>
		</g>
	</g>
</g>
</svg>
