<?xml version="1.0" encoding="utf-8"?>
<!-- Generator: Adobe Illustrator 17.0.0, SVG Export Plug-In . SVG Version: 6.00 Build 0)  -->
<!DOCTYPE svg PUBLIC "-//W3C//DTD SVG 1.1//EN" "http://www.w3.org/Graphics/SVG/1.1/DTD/svg11.dtd">
<svg version="1.1" xmlns="http://www.w3.org/2000/svg" xmlns:xlink="http://www.w3.org/1999/xlink" x="0px" y="0px"
	 width="566.929px" height="566.929px" viewBox="0 0 566.929 566.929" enable-background="new 0 0 566.929 566.929"
	 xml:space="preserve">
<g id="图层_1" display="none">
	<rect x="0.087" y="0.06" display="inline" fill="#999999" width="566.929" height="566.929"/>
</g>
<g id="图层_2">
	<g>
		<path fill-rule="evenodd" clip-rule="evenodd" fill="#313232" d="M274.414,56.753h20.645v41.231h-20.645V56.753L274.414,56.753z
			 M219.433,145.4L58.4,413.403c-4.129,6.185,0,16.493,8.258,16.493h161.033c6.194,0,10.323-4.123,10.323-10.308V151.585
			C240.078,139.216,225.626,135.093,219.433,145.4L219.433,145.4z M509.009,411.342L350.04,145.4
			c-6.194-8.247-20.645-6.185-20.645,6.185v265.941c0,6.185,4.129,10.307,10.323,10.307h158.968
			C506.944,427.834,513.138,419.588,509.009,411.342L509.009,411.342z M274.414,139.216h20.645v41.231h-20.645V139.216
			L274.414,139.216z M274.414,221.678h20.645v41.231h-20.645V221.678L274.414,221.678z M274.414,304.14h20.645v41.231h-20.645
			V304.14L274.414,304.14z M274.414,386.603h20.645v41.231h-20.645V386.603L274.414,386.603z M274.414,469.065h20.645v41.231
			h-20.645V469.065L274.414,469.065z"/>
	</g>
</g>
</svg>
