<?xml version="1.0" encoding="utf-8"?>
<!-- Generator: Adobe Illustrator 17.0.0, SVG Export Plug-In . SVG Version: 6.00 Build 0)  -->
<!DOCTYPE svg PUBLIC "-//W3C//DTD SVG 1.1//EN" "http://www.w3.org/Graphics/SVG/1.1/DTD/svg11.dtd">
<svg version="1.1" xmlns="http://www.w3.org/2000/svg" xmlns:xlink="http://www.w3.org/1999/xlink" x="0px" y="0px"
	 width="566.929px" height="566.929px" viewBox="0 0 566.929 566.929" enable-background="new 0 0 566.929 566.929"
	 xml:space="preserve">
<g id="图层_1" display="none">
	<rect x="-0.007" y="0.123" display="inline" fill="#999999" width="566.929" height="566.929"/>
</g>
<g id="图层_2">
	<g>
		<path fill-rule="evenodd" clip-rule="evenodd" fill="#313232" d="M138.315,56.816H428.6c0,42.334-0.009,84.668,0.009,126.992
			c17.46,0.018,34.927,0.018,52.388,0c5.182-0.123,10.461,0.806,15.023,3.348c8.248,4.376,13.687,13.261,14.209,22.544v193.553
			c-0.717,9.354-6.361,18.213-14.802,22.43c-4.659,2.515-10.036,3.161-15.253,3.056c-17.195-0.018-34.38-0.018-51.565,0
			c-0.026,27.203-0.008,54.407-0.008,81.619H138.315c0-27.213,0.01-54.417-0.008-81.619c-18.062-0.045-36.124,0.034-54.196-0.036
			c-8.229,0.053-16.387-3.774-21.463-10.267c-3.482-4.269-5.377-9.628-5.962-15.059V209.763c0.408-5.918,2.56-11.737,6.449-16.255
			c5.075-6.183,13.039-9.708,21.003-9.673c18.053-0.044,36.115,0.008,54.168-0.027C138.324,141.484,138.315,99.151,138.315,56.816
			L138.315,56.816z M156.448,74.968c0.018,36.284-0.01,72.567,0.018,108.85c84.658,0.009,169.326,0.009,253.993,0
			c0.009-36.283,0-72.567,0-108.85C325.791,74.941,241.124,74.932,156.448,74.968L156.448,74.968z M74.845,211.757
			c-0.053,62.946-0.035,125.894-0.009,188.84c-0.417,5.226,4.004,10.223,9.354,9.947c18.036,0.116,36.08,0.018,54.124,0.036
			c0.009-33.254,0-66.516,0-99.771c96.759-0.017,193.518-0.017,290.277,0c0.018,33.255,0,66.517,0.009,99.781
			c17.469,0.017,34.928-0.009,52.396,0.009c2.737,0.008,5.74-0.266,7.857-2.233c2.587-2.082,3.376-5.536,3.242-8.716
			c-0.027-62.619,0.034-125.247-0.027-187.866c0.443-5.58-4.678-10.444-10.223-9.824c-132.262,0-264.535,0-396.797,0
			C79.514,201.349,74.411,206.193,74.845,211.757L74.845,211.757z M156.465,328.926c-0.027,54.433,0.009,108.858-0.018,163.283
			c84.675,0.027,169.343,0.035,254.019,0c-0.035-54.434,0.018-108.859-0.027-163.283
			C325.783,328.943,241.124,328.934,156.465,328.926L156.465,328.926z M441.462,229.987c4.995-1.506,10.665-0.779,15.042,2.099
			c4.862,3.056,8.034,8.558,8.291,14.289c0.3,5.563-2.109,11.213-6.405,14.775c-5.094,4.339-12.667,5.475-18.798,2.772
			c-6.83-2.816-11.427-10.17-10.921-17.557C428.91,238.925,434.349,232.087,441.462,229.987L441.462,229.987z M192.421,365.349
			c58.677-0.309,117.372-0.034,176.058-0.133c4.057-0.026,9.017-0.452,11.994,2.897c3.446,3.153,3.402,9.248-0.035,12.393
			c-2.268,2.648-6.069,2.844-9.301,2.869c-59.05-0.044-118.099-0.018-177.148-0.009c-4.199,0.107-8.823-2.374-9.752-6.706
			C182.499,371.383,186.92,365.483,192.421,365.349L192.421,365.349z M192.385,401.651c47.48-0.346,94.987-0.018,142.476-0.168
			c3.491-0.115,7.546,0.424,9.797,3.428c3.897,4.111,2.09,11.507-3.003,13.739c-3.58,1.4-7.459,0.948-11.206,0.992
			c-45.504,0.009-91.018-0.009-136.523,0.018c-4.181,0.088-8.743-2.401-9.691-6.705
			C182.491,407.675,186.894,401.793,192.385,401.651L192.385,401.651z M192.395,437.944c59.554-0.345,119.126-0.018,178.688-0.168
			c3.287-0.08,7.14,0.275,9.435,2.94c3.446,3.155,3.313,9.266-0.116,12.393c-2.249,2.623-6.006,2.834-9.212,2.852
			c-59.075-0.044-118.143-0.018-177.219-0.018c-4.19,0.089-8.778-2.365-9.735-6.687
			C182.482,443.967,186.894,438.086,192.395,437.944L192.395,437.944z"/>
	</g>
</g>
</svg>
