<?xml version="1.0" encoding="utf-8"?>
<!-- Generator: Adobe Illustrator 17.0.0, SVG Export Plug-In . SVG Version: 6.00 Build 0)  -->
<!DOCTYPE svg PUBLIC "-//W3C//DTD SVG 1.1//EN" "http://www.w3.org/Graphics/SVG/1.1/DTD/svg11.dtd">
<svg version="1.1" xmlns="http://www.w3.org/2000/svg" xmlns:xlink="http://www.w3.org/1999/xlink" x="0px" y="0px"
	 width="566.929px" height="566.929px" viewBox="0 0 566.929 566.929" enable-background="new 0 0 566.929 566.929"
	 xml:space="preserve">
<g id="图层_1" display="none">
	<rect x="0.02" y="0.123" display="inline" fill="#999999" width="566.929" height="566.929"/>
</g>
<g id="图层_2">
	<g>
		<path fill-rule="evenodd" clip-rule="evenodd" fill="#313232" d="M445.464,413.172h-61.552l55.073-80.99
			c6.479-9.719,6.479-19.438,0-29.156l-64.792-100.427c-9.719-9.719-19.438-16.198-29.156-16.198H215.453
			c-12.958,0-22.677,6.479-29.156,16.198l-64.792,100.427c-6.479,9.719-6.479,19.438,0,29.156l55.073,80.99h-55.073
			c-25.917,0-48.594,22.677-48.594,48.594c0,25.917,19.438,48.594,48.594,48.594h323.96c25.917,0,48.594-22.677,48.594-48.594
			C494.058,435.849,471.381,413.172,445.464,413.172L445.464,413.172z M150.661,319.224l64.792-100.427h129.584l58.313,97.188
			l-58.313,97.188H215.453L150.661,319.224L150.661,319.224z M445.464,477.964h-323.96c-9.719,0-16.198-6.479-16.198-16.198
			c0-9.719,6.479-16.198,16.198-16.198h323.96c9.719,0,16.198,6.479,16.198,16.198C461.662,471.485,451.944,477.964,445.464,477.964
			L445.464,477.964z"/>
		<polygon fill-rule="evenodd" clip-rule="evenodd" fill="#313232" points="267.287,134.567 293.203,134.567 293.203,173.442 
			267.287,173.442 267.287,134.567 		"/>
		<path fill-rule="evenodd" clip-rule="evenodd" fill="#313232" d="M115.026,89.212h129.584v32.396h64.792V89.212h126.344
			c9.719,0,16.198-6.479,16.198-16.198c0-9.719-6.479-16.198-16.198-16.198H111.786c-3.24,0-12.958,9.719-12.958,16.198
			C98.828,82.733,108.546,89.212,115.026,89.212L115.026,89.212z"/>
	</g>
</g>
</svg>
