<?xml version="1.0" encoding="utf-8"?>
<!-- Generator: Adobe Illustrator 17.0.0, SVG Export Plug-In . SVG Version: 6.00 Build 0)  -->
<!DOCTYPE svg PUBLIC "-//W3C//DTD SVG 1.1//EN" "http://www.w3.org/Graphics/SVG/1.1/DTD/svg11.dtd">
<svg version="1.1" xmlns="http://www.w3.org/2000/svg" xmlns:xlink="http://www.w3.org/1999/xlink" x="0px" y="0px"
	 width="709.661px" height="567.929px" viewBox="0 0 709.661 567.929" enable-background="new 0 0 709.661 567.929"
	 xml:space="preserve">
<g id="图层_1">
</g>
<g id="图层_2">
	<g>
		<path fill-rule="evenodd" clip-rule="evenodd" fill="#FFFFFF" d="M552.08,156.667L446.126,66.005
			c-5.988-5.116-17.813-9.314-26.258-9.314H244.967c-8.445,0-15.356,5.904-15.356,13.12v54.975h-64.34
			c-8.445,0-15.356,5.904-15.356,13.12v364.877c0,7.216,6.91,13.121,15.356,13.121h302.814c8.445,0,15.356-5.904,15.356-13.121
			V447.94h64.187c8.445,0,15.356-5.904,15.356-13.121V178.972C562.983,171.755,558.069,161.785,552.08,156.667L552.08,156.667
			L552.08,156.667L552.08,156.667z M383.322,392.309c0,7.216-6.91,13.12-15.356,13.12H265.544c-3.838,0-7.217-1.18-9.981-3.149
			c-3.225-2.492-5.374-6.035-5.374-9.971v-1.574c0-7.216,6.91-13.121,15.356-13.121h102.421c8.445,0,15.356,5.904,15.356,13.121
			V392.309L383.322,392.309L383.322,392.309L383.322,392.309z M383.322,336.678c0,7.216-6.91,13.12-15.356,13.12H265.544
			c-3.685,0-7.064-1.049-9.674-3.017c-3.533-2.361-5.681-6.035-5.681-10.103v-1.574c0-7.216,6.91-13.121,15.356-13.121h102.421
			c8.445,0,15.356,5.904,15.356,13.121V336.678L383.322,336.678L383.322,336.678L383.322,336.678z M383.322,281.179
			c0,7.216-6.91,13.121-15.356,13.121H265.544c-8.445,0-15.356-5.904-15.356-13.121v-1.574c0-7.216,6.91-13.121,15.356-13.121
			h102.422c8.445,0,15.356,5.904,15.356,13.121V281.179L383.322,281.179L383.322,281.179L383.322,281.179z M513.231,392.309
			c0,6.166-4.914,11.284-11.67,12.727c-1.229,0.263-2.457,0.393-3.686,0.393h-14.434V247.067c0-7.216-4.914-17.319-10.903-22.436
			l-105.954-90.662c-5.988-4.986-17.812-9.184-26.258-9.184h-60.962V112.32c0-1.05,0.154-2.1,0.462-3.149
			c1.689-5.773,7.678-9.971,14.895-9.971h104.572c8.446,0,20.27,4.198,26.105,9.315l76.932,65.732
			c5.989,5.117,10.903,15.22,10.903,22.436V392.309L513.231,392.309L513.231,392.309L513.231,392.309z"/>
	</g>
</g>
</svg>
