<?xml version="1.0" encoding="utf-8"?>
<!-- Generator: Adobe Illustrator 17.0.0, SVG Export Plug-In . SVG Version: 6.00 Build 0)  -->
<!DOCTYPE svg PUBLIC "-//W3C//DTD SVG 1.1//EN" "http://www.w3.org/Graphics/SVG/1.1/DTD/svg11.dtd">
<svg version="1.1" xmlns="http://www.w3.org/2000/svg" xmlns:xlink="http://www.w3.org/1999/xlink" x="0px" y="0px"
	 width="566.929px" height="566.929px" viewBox="0 0 566.929 566.929" enable-background="new 0 0 566.929 566.929"
	 xml:space="preserve">
<g id="图层_1" display="none">
	<rect x="0.004" y="-0.002" display="inline" fill="#999999" width="566.929" height="566.929"/>
</g>
<g id="图层_2">
	<g>
		<g>
			<path fill="#313232" d="M367.41,116.691l81.021,60.766l-81.021,60.766v-20.511v-30h-30c-29.09,0-57.622,5.743-84.803,17.068
				l-0.059,0.025l-0.059,0.025c-25.395,10.709-49.302,26.852-69.135,46.685c-19.916,19.917-36.07,43.941-46.718,69.482
				c-11.336,26.912-17.084,55.367-17.084,84.574c0,19.129,2.483,38.017,7.404,56.438l-19.587,8.243
				c-5.891-20.891-8.865-42.544-8.865-64.681c0-32.294,6.329-63.56,18.811-92.929c12.223-28.758,29.444-54.243,51.185-75.746
				l0.118-0.116l0.116-0.118c21.503-21.741,46.987-38.963,75.745-51.185c29.37-12.482,60.636-18.811,92.93-18.811h30v-30V116.691
				 M337.41,56.691v79.974c-37.035,0-72.46,7.514-104.664,21.201c-32.204,13.687-61.188,33.278-85.341,57.699
				c-24.421,24.153-44.012,53.137-57.699,85.341c-13.687,32.204-21.201,67.629-21.201,104.664c0,37.035,7.514,72.46,21.201,104.664
				l74.607-31.399c-9.393-22.543-14.76-47.233-14.76-73.265c0-26.032,5.367-50.721,14.76-72.996
				c9.393-22.543,23.348-42.939,40.255-59.846c16.907-16.907,37.303-30.862,59.578-40.255c22.543-9.393,47.233-14.76,73.265-14.76
				v80.511l161.021-120.766L337.41,56.691L337.41,56.691z"/>
		</g>
	</g>
</g>
</svg>
