<?xml version="1.0" encoding="utf-8"?>
<!-- Generator: Adobe Illustrator 17.0.0, SVG Export Plug-In . SVG Version: 6.00 Build 0)  -->
<!DOCTYPE svg PUBLIC "-//W3C//DTD SVG 1.1//EN" "http://www.w3.org/Graphics/SVG/1.1/DTD/svg11.dtd">
<svg version="1.1" xmlns="http://www.w3.org/2000/svg" xmlns:xlink="http://www.w3.org/1999/xlink" x="0px" y="0px"
	 width="566.929px" height="566.929px" viewBox="0 0 566.929 566.929" enable-background="new 0 0 566.929 566.929"
	 xml:space="preserve">
<g id="图层_1" display="none">
	<rect x="-0.007" y="-0.002" display="inline" fill="#999999" width="566.929" height="566.929"/>
</g>
<g id="图层_2">
	<g>
		<path fill-rule="evenodd" clip-rule="evenodd" fill="#313232" d="M445.032,510.235h-323.15c-36.85,0-65.197-28.346-65.197-65.197
			v-323.15c0-36.85,28.346-65.197,65.197-65.197h325.984c34.016,0,62.362,28.346,62.362,65.197v323.15
			C510.229,481.888,481.883,510.235,445.032,510.235L445.032,510.235z M121.883,85.038c-19.843,0-36.85,17.008-36.85,36.85v323.15
			c0,19.843,17.008,36.85,36.85,36.85h325.984c19.843,0,34.016-17.008,34.016-34.016V121.888c0-19.843-17.008-36.85-36.85-36.85
			H121.883L121.883,85.038z"/>
		<path fill-rule="evenodd" clip-rule="evenodd" fill="#313232" d="M374.166,260.786v-42.52c0-48.189-42.52-87.874-90.709-87.874
			s-90.709,39.685-90.709,87.874c0,8.504,5.669,14.173,14.173,14.173s14.173-5.669,14.173-14.173
			c0-34.016,25.512-59.528,59.528-59.528s59.528,25.512,59.528,59.528v42.52H206.922c-25.512,0-45.354,19.842-45.354,42.52v90.709
			c0,22.677,19.843,42.52,45.354,42.52h153.071c25.512,0,45.354-19.843,45.354-42.52v-90.709
			C405.347,283.463,391.174,266.455,374.166,260.786L374.166,260.786z M374.166,394.014c0,8.504-5.669,14.173-14.173,14.173H206.922
			c-8.504,0-14.173-5.669-14.173-14.173v-90.709c0-8.504,5.669-14.173,14.173-14.173h153.071c8.504,0,14.173,5.669,14.173,14.173
			V394.014L374.166,394.014z"/>
	</g>
</g>
</svg>
