<?xml version="1.0" encoding="utf-8"?>
<!-- Generator: Adobe Illustrator 17.0.0, SVG Export Plug-In . SVG Version: 6.00 Build 0)  -->
<!DOCTYPE svg PUBLIC "-//W3C//DTD SVG 1.1//EN" "http://www.w3.org/Graphics/SVG/1.1/DTD/svg11.dtd">
<svg version="1.1" xmlns="http://www.w3.org/2000/svg" xmlns:xlink="http://www.w3.org/1999/xlink" x="0px" y="0px"
	 width="566.929px" height="566.929px" viewBox="0 0 566.929 566.929" enable-background="new 0 0 566.929 566.929"
	 xml:space="preserve">
<g id="图层_1" display="none">
	<rect x="0.02" y="-0.002" display="inline" fill="#999999" width="566.929" height="566.929"/>
</g>
<g id="图层_2">
	<g>
		<path fill="#313232" d="M283.485,86.224c52.681,0,102.213,20.519,139.46,57.772c37.26,37.253,57.779,86.785,57.779,139.466
			c0,50.894-19.2,98.817-54.093,135.602h29.438c6.805,0,12.327,5.523,12.327,12.327c0,6.805-5.523,12.327-12.327,12.327h-73.965
			v-73.964c0-6.805,5.523-12.327,12.327-12.327c6.805,0,12.327,5.523,12.327,12.327v34.437
			c31.792-32.446,49.31-75.234,49.31-120.729c0-46.098-17.955-89.435-50.555-122.029c-32.594-32.6-75.931-50.555-122.029-50.555
			c-6.805,0-12.327-5.523-12.327-12.327C271.157,91.747,276.68,86.224,283.485,86.224 M283.485,56.691
			c-23.082,0-41.86,18.778-41.86,41.86s18.778,41.86,41.86,41.86c38.208,0,74.128,14.881,101.144,41.903
			c27.025,27.02,41.907,62.941,41.907,101.148c0,17.741-3.226,35.014-9.399,51.138c-6.544-4.241-14.343-6.707-22.705-6.707
			c-23.082,0-41.86,18.778-41.86,41.86v73.964v29.533h29.533h73.965c23.082,0,41.86-18.778,41.86-41.86
			c0-14.261-7.169-26.88-18.092-34.442c19.828-34.185,30.42-73.145,30.42-113.487c0-60.573-23.592-117.52-66.43-160.351
			C401.002,80.281,344.057,56.691,283.485,56.691L283.485,56.691z"/>
		<path fill="#313232" d="M184.865,123.206v73.965c0,6.805-5.523,12.327-12.327,12.327c-6.805,0-12.327-5.523-12.327-12.327v-34.437
			c-31.792,32.446-49.31,75.234-49.31,120.729c0,46.098,17.955,89.435,50.555,122.029c32.594,32.6,75.931,50.555,122.029,50.555
			c6.805,0,12.327,5.523,12.327,12.327s-5.523,12.327-12.327,12.327c-52.681,0-102.213-20.519-139.46-57.772
			c-37.26-37.253-57.779-86.785-57.779-139.466c0-50.894,19.2-98.817,54.093-135.602h-29.438c-6.805,0-12.327-5.523-12.327-12.327
			c0-6.805,5.523-12.327,12.327-12.327H184.865 M214.398,93.674h-29.533h-73.965c-23.082,0-41.86,18.778-41.86,41.86
			c0,14.261,7.169,26.88,18.092,34.442c-19.828,34.185-30.42,73.145-30.42,113.487c0,60.573,23.592,117.52,66.43,160.351
			c42.824,42.831,99.769,66.421,160.341,66.421c23.082,0,41.86-18.778,41.86-41.86c0-23.082-18.778-41.86-41.86-41.86
			c-38.208,0-74.128-14.881-101.144-41.903c-27.025-27.02-41.907-62.941-41.907-101.148c0-17.741,3.226-35.013,9.399-51.138
			c6.544,4.242,14.343,6.707,22.705,6.707c23.082,0,41.86-18.778,41.86-41.86v-73.965V93.674L214.398,93.674z"/>
	</g>
</g>
</svg>
