<?xml version="1.0" encoding="utf-8"?>
<!-- Generator: Adobe Illustrator 17.0.0, SVG Export Plug-In . SVG Version: 6.00 Build 0)  -->
<!DOCTYPE svg PUBLIC "-//W3C//DTD SVG 1.1//EN" "http://www.w3.org/Graphics/SVG/1.1/DTD/svg11.dtd">
<svg version="1.1" xmlns="http://www.w3.org/2000/svg" xmlns:xlink="http://www.w3.org/1999/xlink" x="0px" y="0px"
	 width="566.929px" height="566.929px" viewBox="0 0 566.929 566.929" enable-background="new 0 0 566.929 566.929"
	 xml:space="preserve">
<g id="图层_1" display="none">
	<rect x="0.043" y="0.079" display="inline" fill="#999999" width="566.929" height="566.929"/>
</g>
<g id="图层_2">
	<g>
		<path fill-rule="evenodd" clip-rule="evenodd" fill="#313232" d="M284.017,197.884c22.861,0,44.304,8.903,60.475,25.025
			c16.127,16.166,25.032,37.603,25.032,60.458s-8.905,44.291-25.032,60.457c-16.171,16.122-37.614,25.025-60.475,25.025
			c-22.861,0-44.304-8.903-60.476-25.025c-16.126-16.166-25.032-37.603-25.032-60.457s8.905-44.292,25.032-60.458
			C239.713,206.786,261.156,197.884,284.017,197.884L284.017,197.884z M284.017,169.537c-62.868,0-113.862,50.979-113.862,113.829
			s50.994,113.829,113.862,113.829c62.867,0,113.862-50.979,113.862-113.829S346.884,169.537,284.017,169.537L284.017,169.537"/>
		<path fill-rule="evenodd" clip-rule="evenodd" fill="#313232" d="M184.554,56.816H71.578c-0.222,0-0.487,0-0.709,0
			c-0.089,0-0.221,0-0.31,0c-0.133,0-0.266,0-0.399,0.044c-0.133,0-0.266,0.044-0.399,0.044c-0.089,0-0.177,0.044-0.266,0.044
			c-0.133,0-0.31,0.044-0.443,0.089c-0.089,0-0.177,0.044-0.222,0.044c-0.133,0.044-0.31,0.044-0.443,0.089
			c-0.089,0-0.177,0.044-0.222,0.044c-0.133,0.044-0.266,0.089-0.443,0.132c-0.089,0.044-0.177,0.044-0.266,0.089
			c-0.133,0.044-0.266,0.089-0.399,0.133c-0.089,0.044-0.177,0.044-0.266,0.089c-0.133,0.044-0.222,0.089-0.354,0.133
			c-0.089,0.044-0.222,0.089-0.31,0.133c-0.089,0-0.177,0.044-0.266,0.089c-0.133,0.044-0.222,0.089-0.354,0.177
			c-0.089,0.044-0.177,0.089-0.266,0.133c-0.133,0.044-0.266,0.133-0.354,0.177c-0.089,0.044-0.133,0.089-0.222,0.133
			c-0.133,0.088-0.266,0.132-0.399,0.221c-0.089,0.044-0.133,0.089-0.177,0.133c-0.133,0.089-0.266,0.177-0.399,0.266
			c-0.044,0.044-0.133,0.089-0.177,0.133c-0.133,0.089-0.266,0.177-0.354,0.266c-0.089,0.044-0.133,0.133-0.222,0.177
			c-0.089,0.089-0.221,0.177-0.31,0.266c-0.089,0.088-0.177,0.177-0.266,0.221c-0.089,0.089-0.177,0.133-0.266,0.222
			c-0.354,0.31-0.665,0.665-0.975,0.975c-0.089,0.088-0.133,0.177-0.222,0.265c-0.089,0.089-0.177,0.177-0.222,0.266
			c-0.089,0.089-0.177,0.222-0.266,0.31c-0.044,0.089-0.133,0.133-0.177,0.222c-0.089,0.133-0.177,0.222-0.266,0.354
			c-0.044,0.044-0.089,0.132-0.133,0.177c-0.089,0.133-0.177,0.266-0.266,0.399c-0.044,0.089-0.089,0.133-0.133,0.222
			c-0.089,0.133-0.133,0.266-0.222,0.399c-0.044,0.089-0.089,0.133-0.133,0.222c-0.044,0.132-0.133,0.265-0.177,0.354
			c-0.044,0.089-0.089,0.177-0.133,0.266c-0.044,0.133-0.089,0.222-0.133,0.354c-0.089,0.044-0.133,0.133-0.177,0.266
			c-0.044,0.089-0.089,0.222-0.133,0.31c-0.044,0.133-0.089,0.222-0.133,0.354c-0.044,0.089-0.044,0.177-0.089,0.266
			c-0.044,0.133-0.089,0.266-0.133,0.399c-0.044,0.089-0.044,0.177-0.089,0.222c-0.044,0.132-0.089,0.31-0.133,0.443
			c0,0.089-0.044,0.133-0.044,0.221c-0.044,0.133-0.089,0.31-0.089,0.443c0,0.089-0.044,0.133-0.044,0.222
			c-0.044,0.133-0.044,0.31-0.089,0.443c0,0.089,0,0.177-0.044,0.266c0,0.133-0.044,0.266-0.044,0.443c0,0.133,0,0.222-0.044,0.354
			c0,0.132,0,0.221-0.044,0.354c0,0.222,0,0.443,0,0.665v0.044v112.943c0,7.84,6.336,14.173,14.177,14.173
			c7.842,0,14.177-6.333,14.177-14.173v-78.75l61.096,61.078c2.747,2.746,6.38,4.163,10.012,4.163c3.633,0,7.266-1.373,10.013-4.163
			c5.539-5.536,5.539-14.528,0-20.064l-60.963-61.078h78.729c7.842,0,14.177-6.334,14.177-14.173
			C198.731,63.149,192.395,56.816,184.554,56.816L184.554,56.816z"/>
		<path fill-rule="evenodd" clip-rule="evenodd" fill="#313232" d="M183.889,481.791H105.16l61.096-61.078
			c5.538-5.536,5.538-14.528,0-20.064c-5.538-5.536-14.532-5.536-20.07,0L85.09,461.727v-78.706c0-7.84-6.336-14.173-14.177-14.173
			c-7.842,0-14.177,6.333-14.177,14.173v112.943v0.044c0,0.221,0,0.443,0,0.664c0,0.133,0,0.221,0.044,0.354
			c0,0.133,0,0.221,0.044,0.354c0,0.133,0.044,0.266,0.044,0.443c0,0.089,0,0.177,0.044,0.266c0.044,0.133,0.044,0.31,0.089,0.443
			c0,0.089,0.044,0.133,0.044,0.221c0.044,0.133,0.044,0.31,0.089,0.443c0,0.089,0.044,0.133,0.044,0.221
			c0.044,0.133,0.089,0.31,0.133,0.443c0.044,0.089,0.044,0.177,0.089,0.221c0.044,0.133,0.089,0.266,0.133,0.399
			c0.044,0.089,0.044,0.177,0.089,0.266c0.044,0.133,0.089,0.221,0.133,0.354c0.044,0.089,0.089,0.221,0.133,0.31
			c0.044,0.089,0.089,0.221,0.133,0.31c0.044,0.133,0.089,0.221,0.177,0.354c0.044,0.089,0.089,0.177,0.133,0.266
			c0.044,0.133,0.133,0.266,0.177,0.354c0.044,0.089,0.089,0.133,0.133,0.221c0.089,0.133,0.133,0.266,0.222,0.399
			c0.044,0.044,0.089,0.133,0.133,0.177c0.089,0.133,0.177,0.266,0.266,0.399c0.044,0.044,0.089,0.133,0.133,0.177
			c0.089,0.133,0.177,0.266,0.266,0.399c0.044,0.089,0.089,0.133,0.133,0.177c0.089,0.133,0.177,0.221,0.266,0.354
			c0.089,0.089,0.133,0.177,0.222,0.266c0.089,0.089,0.177,0.177,0.222,0.266c0.133,0.133,0.266,0.266,0.399,0.443
			c0.044,0.044,0.044,0.044,0.089,0.089c0.044,0.044,0.044,0.044,0.089,0.089c0.133,0.133,0.266,0.266,0.399,0.399
			c0.089,0.089,0.177,0.177,0.266,0.221c0.089,0.089,0.177,0.133,0.266,0.221c0.133,0.089,0.222,0.177,0.354,0.266
			c0.044,0.044,0.133,0.089,0.177,0.133c0.133,0.089,0.266,0.177,0.399,0.266c0.044,0.044,0.133,0.089,0.177,0.133
			c0.133,0.089,0.266,0.177,0.399,0.266c0.044,0.044,0.133,0.089,0.177,0.133c0.133,0.089,0.266,0.133,0.399,0.221
			c0.089,0.044,0.133,0.089,0.222,0.133c0.133,0.089,0.266,0.133,0.354,0.177c0.089,0.044,0.177,0.089,0.266,0.133
			c0.133,0.044,0.222,0.089,0.354,0.177c0.089,0.044,0.177,0.089,0.31,0.133c0.089,0.044,0.221,0.089,0.31,0.133
			c0.133,0.044,0.222,0.089,0.354,0.133c0.089,0.044,0.177,0.044,0.266,0.089c0.133,0.044,0.266,0.089,0.399,0.133
			c0.089,0.044,0.177,0.044,0.222,0.089c0.133,0.044,0.266,0.089,0.443,0.133c0.089,0,0.133,0.044,0.221,0.044
			c0.133,0.044,0.31,0.089,0.443,0.089c0.089,0,0.177,0.044,0.221,0.044c0.133,0.044,0.31,0.044,0.443,0.089
			c0.089,0,0.177,0.044,0.266,0.044c0.133,0,0.266,0.044,0.399,0.044c0.133,0,0.222,0,0.354,0.044c0.089,0,0.222,0,0.31,0.044
			c0.222,0,0.487,0,0.709,0h112.976c7.842,0,14.177-6.334,14.177-14.173C198.111,488.302,191.731,481.791,183.889,481.791
			L183.889,481.791z"/>
		<path fill-rule="evenodd" clip-rule="evenodd" fill="#313232" d="M506.779,505.177c0.044-0.089,0.133-0.133,0.177-0.221
			c0.088-0.133,0.177-0.266,0.31-0.354c0.044-0.044,0.089-0.133,0.133-0.177c0.089-0.133,0.177-0.266,0.266-0.399
			c0.044-0.044,0.089-0.089,0.133-0.177c0.089-0.133,0.177-0.266,0.266-0.399c0.044-0.044,0.089-0.133,0.089-0.177
			c0.089-0.133,0.177-0.266,0.222-0.399c0.044-0.044,0.089-0.133,0.132-0.177c0.089-0.133,0.133-0.266,0.177-0.399
			c0.044-0.089,0.089-0.177,0.133-0.221c0.044-0.133,0.089-0.221,0.177-0.354c0.044-0.089,0.089-0.177,0.133-0.31
			c0.044-0.089,0.089-0.221,0.133-0.31c0.044-0.133,0.089-0.221,0.133-0.354c0.044-0.089,0.044-0.177,0.089-0.266
			c0.044-0.133,0.089-0.266,0.133-0.399c0.044-0.089,0.044-0.177,0.089-0.266c0.044-0.133,0.089-0.266,0.133-0.443
			c0-0.089,0.044-0.133,0.044-0.221c0.044-0.133,0.088-0.31,0.088-0.443c0-0.089,0.044-0.177,0.044-0.221
			c0.044-0.133,0.044-0.31,0.089-0.443c0-0.089,0.044-0.177,0.044-0.266c0-0.133,0.044-0.266,0.044-0.399s0-0.221,0.044-0.354
			c0-0.089,0-0.221,0.044-0.31c0-0.221,0-0.487,0-0.709V383.022c0-7.84-6.335-14.173-14.177-14.173
			c-7.842,0-14.177,6.333-14.177,14.173v78.706l-61.184-61.034c-5.538-5.536-14.531-5.536-20.07,0
			c-5.538,5.536-5.538,14.528,0,20.064l61.096,61.034h-78.729c-7.842,0-14.177,6.334-14.177,14.173
			c0,7.84,6.335,14.173,14.177,14.173h112.976c0.222,0,0.488,0,0.709,0c0.133,0,0.222,0,0.31-0.044c0.132,0,0.221,0,0.354-0.044
			c0.133,0,0.266-0.044,0.399-0.044c0.089,0,0.177,0,0.266-0.044c0.133,0,0.31-0.044,0.443-0.089c0.088,0,0.177-0.044,0.221-0.044
			c0.133-0.044,0.31-0.044,0.443-0.089c0.089,0,0.133-0.044,0.222-0.044c0.133-0.044,0.266-0.089,0.443-0.133
			c0.089-0.044,0.177-0.044,0.265-0.089c0.133-0.044,0.266-0.089,0.399-0.133c0.089-0.044,0.177-0.044,0.266-0.089
			c0.133-0.044,0.222-0.089,0.355-0.133c0.089-0.044,0.222-0.089,0.31-0.133c0.089-0.044,0.177-0.089,0.31-0.133
			c0.133-0.044,0.222-0.089,0.355-0.177c0.089-0.044,0.177-0.089,0.266-0.133c0.133-0.044,0.266-0.133,0.399-0.177
			c0.088-0.044,0.132-0.089,0.221-0.133c0.133-0.089,0.266-0.133,0.399-0.221c0.044-0.044,0.133-0.089,0.177-0.133
			c0.133-0.089,0.266-0.177,0.399-0.266c0.044-0.044,0.133-0.089,0.177-0.133c0.132-0.089,0.265-0.177,0.398-0.266
			c0.044-0.044,0.133-0.089,0.177-0.133c0.133-0.089,0.266-0.177,0.355-0.266c0.089-0.044,0.133-0.133,0.222-0.177
			c0.089-0.089,0.222-0.177,0.31-0.266c0.088-0.089,0.221-0.221,0.31-0.31c0.044-0.044,0.133-0.133,0.177-0.177
			c0.044-0.044,0.133-0.133,0.177-0.177c0.089-0.089,0.222-0.221,0.31-0.31C506.602,505.399,506.691,505.266,506.779,505.177
			L506.779,505.177z"/>
		<path fill-rule="evenodd" clip-rule="evenodd" fill="#313232" d="M510.19,70.28c0-0.133,0-0.222-0.044-0.31
			c0-0.133,0-0.222-0.044-0.354c0-0.133-0.044-0.266-0.044-0.399c0-0.089,0-0.177-0.044-0.266c0-0.133-0.044-0.31-0.089-0.443
			c0-0.089-0.044-0.177-0.044-0.222c-0.044-0.133-0.044-0.31-0.088-0.443c0-0.089-0.044-0.133-0.044-0.222
			c-0.044-0.133-0.089-0.266-0.133-0.442c-0.044-0.089-0.044-0.177-0.089-0.266c-0.044-0.133-0.089-0.266-0.133-0.399
			c-0.044-0.089-0.044-0.177-0.089-0.266c-0.044-0.133-0.089-0.222-0.133-0.354c-0.044-0.089-0.089-0.221-0.133-0.31
			c-0.044-0.089-0.089-0.177-0.133-0.31s-0.089-0.222-0.177-0.354c-0.044-0.089-0.089-0.177-0.133-0.266
			c-0.044-0.133-0.132-0.265-0.177-0.398c-0.044-0.089-0.089-0.133-0.133-0.222c-0.089-0.133-0.133-0.266-0.222-0.399
			c-0.044-0.044-0.089-0.133-0.133-0.177c-0.089-0.133-0.177-0.266-0.266-0.399c-0.044-0.044-0.089-0.132-0.133-0.177
			c-0.089-0.133-0.177-0.266-0.266-0.399c-0.044-0.044-0.089-0.133-0.133-0.177c-0.089-0.133-0.177-0.222-0.265-0.354
			c-0.089-0.089-0.133-0.177-0.222-0.222c-0.089-0.089-0.177-0.177-0.222-0.265c-0.133-0.133-0.266-0.266-0.399-0.399
			c-0.044-0.044-0.044-0.044-0.089-0.089c-0.044-0.044-0.044-0.044-0.089-0.089c-0.133-0.133-0.265-0.266-0.443-0.399
			c-0.089-0.089-0.177-0.177-0.266-0.222c-0.089-0.089-0.177-0.132-0.266-0.221c-0.133-0.089-0.222-0.177-0.355-0.266
			c-0.044-0.044-0.133-0.089-0.177-0.133c-0.132-0.089-0.265-0.177-0.398-0.266c-0.044-0.044-0.133-0.089-0.177-0.133
			c-0.133-0.089-0.266-0.177-0.399-0.266c-0.044-0.044-0.133-0.089-0.177-0.133c-0.133-0.089-0.266-0.133-0.399-0.221
			c-0.088-0.044-0.132-0.089-0.221-0.133c-0.133-0.089-0.266-0.133-0.399-0.177c-0.089-0.044-0.177-0.089-0.266-0.133
			c-0.133-0.044-0.222-0.089-0.355-0.177c-0.089-0.044-0.177-0.089-0.31-0.133c-0.089-0.044-0.222-0.089-0.31-0.133
			c-0.133-0.044-0.222-0.089-0.355-0.133c-0.089-0.044-0.177-0.044-0.266-0.089c-0.133-0.044-0.266-0.089-0.399-0.133
			c-0.088-0.044-0.177-0.044-0.265-0.089c-0.133-0.044-0.266-0.088-0.399-0.132c-0.089,0-0.177-0.044-0.222-0.044
			c-0.133-0.044-0.31-0.089-0.443-0.089c-0.088,0-0.177-0.044-0.265-0.044c-0.133-0.044-0.31-0.044-0.443-0.089
			c-0.089,0-0.177-0.044-0.266-0.044c-0.133,0-0.266-0.044-0.399-0.044c-0.132,0-0.265,0-0.398-0.044c-0.089,0-0.222,0-0.31,0
			c-0.222,0-0.488,0-0.709,0H382.815c-7.842,0-14.177,6.333-14.177,14.173c0,7.839,6.336,14.173,14.177,14.173h78.729l-60.83,61.122
			c-5.538,5.536-5.538,14.528,0,20.064c2.747,2.746,6.38,4.163,10.013,4.163c3.633,0,7.266-1.373,10.013-4.163l61.096-61.078v78.705
			c0,7.84,6.336,14.173,14.177,14.173c7.842,0,14.177-6.333,14.177-14.173V70.989C510.19,70.768,510.19,70.502,510.19,70.28
			L510.19,70.28z"/>
	</g>
</g>
</svg>
