<?xml version="1.0" encoding="utf-8"?>
<!-- Generator: Adobe Illustrator 17.0.0, SVG Export Plug-In . SVG Version: 6.00 Build 0)  -->
<!DOCTYPE svg PUBLIC "-//W3C//DTD SVG 1.1//EN" "http://www.w3.org/Graphics/SVG/1.1/DTD/svg11.dtd">
<svg version="1.1" xmlns="http://www.w3.org/2000/svg" xmlns:xlink="http://www.w3.org/1999/xlink" x="0px" y="0px"
	 width="566.929px" height="566.929px" viewBox="0 0 566.929 566.929" enable-background="new 0 0 566.929 566.929"
	 xml:space="preserve">
<g id="图层_1" display="none">
	<rect x="0.004" y="0.079" display="inline" fill="#999999" width="566.929" height="566.929"/>
</g>
<g id="图层_2">
	<g>
		<path fill-rule="evenodd" clip-rule="evenodd" fill="#313232" d="M56.696,107.166h50.394V56.772
			C79.359,56.772,56.696,79.459,56.696,107.166L56.696,107.166L56.696,107.166z"/>
		<polygon fill-rule="evenodd" clip-rule="evenodd" fill="#313232" points="56.696,308.74 107.09,308.74 107.09,258.347 
			56.696,258.347 56.696,308.74 		"/>
		<polygon fill-rule="evenodd" clip-rule="evenodd" fill="#313232" points="157.484,510.315 207.877,510.315 207.877,459.922 
			157.484,459.922 157.484,510.315 		"/>
		<polygon fill-rule="evenodd" clip-rule="evenodd" fill="#313232" points="56.696,207.953 107.09,207.953 107.09,157.56 
			56.696,157.56 56.696,207.953 		"/>
		<polygon fill-rule="evenodd" clip-rule="evenodd" fill="#313232" points="308.665,56.772 258.271,56.772 258.271,107.166 
			308.665,107.166 308.665,56.772 		"/>
		<path fill-rule="evenodd" clip-rule="evenodd" fill="#313232" d="M459.846,56.772v50.394h50.394
			C510.24,79.459,487.577,56.772,459.846,56.772L459.846,56.772L459.846,56.772z"/>
		<path fill-rule="evenodd" clip-rule="evenodd" fill="#313232" d="M107.09,510.315v-50.393H56.696
			C56.696,487.628,79.359,510.315,107.09,510.315L107.09,510.315L107.09,510.315z"/>
		<polygon fill-rule="evenodd" clip-rule="evenodd" fill="#313232" points="56.696,409.528 107.09,409.528 107.09,359.134 
			56.696,359.134 56.696,409.528 		"/>
		<polygon fill-rule="evenodd" clip-rule="evenodd" fill="#313232" points="207.877,56.772 157.484,56.772 157.484,107.166 
			207.877,107.166 207.877,56.772 		"/>
		<polygon fill-rule="evenodd" clip-rule="evenodd" fill="#313232" points="258.271,510.315 308.665,510.315 308.665,459.922 
			258.271,459.922 258.271,510.315 		"/>
		<polygon fill-rule="evenodd" clip-rule="evenodd" fill="#313232" points="459.846,308.74 510.24,308.74 510.24,258.347 
			459.846,258.347 459.846,308.74 		"/>
		<path fill-rule="evenodd" clip-rule="evenodd" fill="#313232" d="M459.846,510.315c27.731,0,50.394-22.687,50.394-50.393h-50.394
			V510.315L459.846,510.315L459.846,510.315z"/>
		<polygon fill-rule="evenodd" clip-rule="evenodd" fill="#313232" points="459.846,207.953 510.24,207.953 510.24,157.56 
			459.846,157.56 459.846,207.953 		"/>
		<polygon fill-rule="evenodd" clip-rule="evenodd" fill="#313232" points="459.846,409.528 510.24,409.528 510.24,359.134 
			459.846,359.134 459.846,409.528 		"/>
		<polygon fill-rule="evenodd" clip-rule="evenodd" fill="#313232" points="359.059,510.315 409.452,510.315 409.452,459.922 
			359.059,459.922 359.059,510.315 		"/>
		<polygon fill-rule="evenodd" clip-rule="evenodd" fill="#313232" points="359.059,107.166 409.452,107.166 409.452,56.772 
			359.059,56.772 359.059,107.166 		"/>
		<path fill-rule="evenodd" clip-rule="evenodd" fill="#313232" d="M157.484,157.56v251.969h251.968V157.56H157.484L157.484,157.56z
			 M359.059,359.134H207.877V207.953h151.181L359.059,359.134L359.059,359.134L359.059,359.134z"/>
	</g>
</g>
</svg>
