<?xml version="1.0" encoding="utf-8"?>
<!-- Generator: Adobe Illustrator 17.0.0, SVG Export Plug-In . SVG Version: 6.00 Build 0)  -->
<!DOCTYPE svg PUBLIC "-//W3C//DTD SVG 1.1//EN" "http://www.w3.org/Graphics/SVG/1.1/DTD/svg11.dtd">
<svg version="1.1" xmlns="http://www.w3.org/2000/svg" xmlns:xlink="http://www.w3.org/1999/xlink" x="0px" y="0px"
	 width="709.661px" height="567.929px" viewBox="0 0 709.661 567.929" enable-background="new 0 0 709.661 567.929"
	 xml:space="preserve">
<g id="图层_1">
</g>
<g id="图层_2">
	<g>
		<path fill-rule="evenodd" clip-rule="evenodd" fill="#FFFFFF" d="M344.516,277.744c-2.206,0-4.438-0.565-6.476-1.757
			c-6.119-3.579-8.159-11.442-4.568-17.547l51.652-88.155c3.554-6.119,11.414-8.171,17.545-4.58
			c6.119,3.58,8.159,11.443,4.567,17.549l-51.651,88.154C353.213,275.485,348.929,277.744,344.516,277.744L344.516,277.744
			 M344.516,277.744L344.516,277.744z"/>
		<path fill-rule="evenodd" clip-rule="evenodd" fill="#FFFFFF" d="M294.43,285.08c-3.824,0-7.605-1.693-10.133-4.94l-40.533-52.008
			c-3.642-4.683-3.603-11.249,0.103-15.88l40.533-50.805c4.425-5.542,12.479-6.44,18.019-2.029
			c5.542,4.413,6.439,12.494,2.014,18.023l-34.22,42.903l34.324,44.033c4.349,5.592,3.361,13.646-2.244,17.996
			C299.944,284.194,297.188,285.08,294.43,285.08L294.43,285.08 M294.43,285.08L294.43,285.08z"/>
		<path fill-rule="evenodd" clip-rule="evenodd" fill="#FFFFFF" d="M455.965,285.08c-2.796,0-5.619-0.91-7.978-2.796
			c-5.556-4.413-6.454-12.48-2.04-18.021l34.221-42.917l-34.311-44.019c-4.348-5.592-3.359-13.648,2.245-17.996
			c5.592-4.374,13.634-3.362,17.996,2.231l40.517,51.999c3.643,4.68,3.603,11.234-0.09,15.877l-40.518,50.82
			C463.468,283.426,459.735,285.08,455.965,285.08L455.965,285.08 M455.965,285.08L455.965,285.08z"/>
		<path fill-rule="evenodd" clip-rule="evenodd" fill="#FFFFFF" d="M622.306,59.348H131.555c-17.403,0-31.324,10.517-31.324,28.045
			v315.491c0,14.02,13.921,28.041,27.845,28.041h196.729l-5.305,56.087h-38.284c-13.92,0-24.366,17.524-24.366,31.548h233.197
			c3.479-10.518-6.961-31.548-20.885-31.548h-38.287l-5.301-56.087h196.732c13.921,0,27.845-14.021,27.845-28.041V87.393
			C650.15,69.865,636.227,59.348,622.306,59.348L622.306,59.348L622.306,59.348z M618.827,350.299H135.036V90.896h483.791V350.299
			L618.827,350.299L618.827,350.299z"/>
	</g>
</g>
</svg>
