<?xml version="1.0" encoding="utf-8"?>
<!-- Generator: Adobe Illustrator 17.0.0, SVG Export Plug-In . SVG Version: 6.00 Build 0)  -->
<!DOCTYPE svg PUBLIC "-//W3C//DTD SVG 1.1//EN" "http://www.w3.org/Graphics/SVG/1.1/DTD/svg11.dtd">
<svg version="1.1" xmlns="http://www.w3.org/2000/svg" xmlns:xlink="http://www.w3.org/1999/xlink" x="0px" y="0px"
	 width="566.929px" height="566.929px" viewBox="0 0 566.929 566.929" enable-background="new 0 0 566.929 566.929"
	 xml:space="preserve">
<g id="图层_1" display="none">
	<rect x="-0.007" y="0.079" display="inline" fill="#999999" width="566.929" height="566.929"/>
</g>
<g id="图层_2">
	<g>
		<path fill-rule="evenodd" clip-rule="evenodd" fill="#313232" d="M258.159,274.298c-1.82,0-3.66-0.466-5.341-1.449
			c-5.046-2.952-6.729-9.436-3.767-14.472l42.6-72.705c2.931-5.046,9.414-6.739,14.47-3.778c5.046,2.952,6.729,9.437,3.767,14.473
			l-42.599,72.704C265.331,272.435,261.799,274.298,258.159,274.298L258.159,274.298 M258.159,274.298"/>
		<path fill-rule="evenodd" clip-rule="evenodd" fill="#313232" d="M216.85,280.348c-3.154,0-6.272-1.396-8.357-4.074
			l-33.429-42.893c-3.004-3.862-2.972-9.278,0.085-13.097l33.429-41.901c3.649-4.571,10.292-5.311,14.861-1.673
			c4.571,3.64,5.311,10.304,1.661,14.865l-28.223,35.384l28.308,36.316c3.587,4.612,2.772,11.254-1.851,14.842
			C221.398,279.618,219.125,280.348,216.85,280.348L216.85,280.348 M216.85,280.348"/>
		<path fill-rule="evenodd" clip-rule="evenodd" fill="#313232" d="M350.076,280.348c-2.306,0-4.634-0.75-6.58-2.306
			c-4.582-3.64-5.323-10.293-1.683-14.863l28.224-35.396l-28.298-36.304c-3.586-4.612-2.77-11.256,1.852-14.842
			c4.612-3.608,11.245-2.772,14.842,1.84l33.416,42.886c3.005,3.86,2.972,9.266-0.074,13.095l-33.417,41.913
			C356.264,278.984,353.185,280.348,350.076,280.348L350.076,280.348 M350.076,280.348"/>
		<path fill-rule="evenodd" clip-rule="evenodd" fill="#313232" d="M487.264,94.177H82.52c-14.353,0-25.834,8.674-25.834,23.13
			v260.199c0,11.563,11.481,23.127,22.965,23.127h162.251l-4.375,46.258h-31.575c-11.481,0-20.096,14.453-20.096,26.019h192.328
			c2.869-8.674-5.741-26.019-17.225-26.019h-31.577l-4.372-46.258h162.253c11.481,0,22.965-11.564,22.965-23.127V117.307
			C510.229,102.851,498.745,94.177,487.264,94.177L487.264,94.177L487.264,94.177z M484.395,334.137H85.392V120.196h399.003V334.137
			L484.395,334.137L484.395,334.137z"/>
	</g>
</g>
</svg>
