<?xml version="1.0" encoding="utf-8"?>
<!-- Generator: Adobe Illustrator 17.0.0, SVG Export Plug-In . SVG Version: 6.00 Build 0)  -->
<!DOCTYPE svg PUBLIC "-//W3C//DTD SVG 1.1//EN" "http://www.w3.org/Graphics/SVG/1.1/DTD/svg11.dtd">
<svg version="1.1" xmlns="http://www.w3.org/2000/svg" xmlns:xlink="http://www.w3.org/1999/xlink" x="0px" y="0px"
	 width="709.661px" height="567.929px" viewBox="0 0 709.661 567.929" enable-background="new 0 0 709.661 567.929"
	 xml:space="preserve">
<g id="图层_1">
</g>
<g id="图层_2">
	<g>
		<g>
			<rect x="145.907" y="268.902" fill-rule="evenodd" clip-rule="evenodd" fill="#FFFFFF" width="422.148" height="34.79"/>
			<g>
				<path fill-rule="evenodd" clip-rule="evenodd" fill="#FFFFFF" d="M211.577,216.596c6.793,6.793,6.793,17.807,0,24.601
					l-57.401,57.401c-6.793,6.793-17.807,6.793-24.601,0l0,0c-6.793-6.793-6.793-17.807,0-24.601l57.401-57.401
					C193.769,209.802,204.783,209.802,211.577,216.596L211.577,216.596z"/>
				<path fill-rule="evenodd" clip-rule="evenodd" fill="#FFFFFF" d="M129.575,273.997c6.793-6.793,17.807-6.793,24.601,0
					l57.401,57.401c6.793,6.793,6.793,17.807,0,24.601l0,0c-6.793,6.793-17.807,6.793-24.601,0l-57.401-57.401
					C122.782,291.804,122.782,280.79,129.575,273.997L129.575,273.997z"/>
			</g>
			<g>
				<path fill-rule="evenodd" clip-rule="evenodd" fill="#FFFFFF" d="M496.596,216.596c-6.793,6.793-6.793,17.807,0,24.601
					l57.401,57.401c6.793,6.793,17.807,6.793,24.601,0l0,0c6.793-6.793,6.793-17.807,0-24.601l-57.401-57.401
					C514.403,209.802,503.389,209.802,496.596,216.596L496.596,216.596z"/>
				<path fill-rule="evenodd" clip-rule="evenodd" fill="#FFFFFF" d="M578.598,273.997c-6.793-6.793-17.807-6.793-24.601,0
					l-57.401,57.401c-6.793,6.793-6.793,17.807,0,24.601l0,0c6.793,6.793,17.807,6.793,24.601,0l57.401-57.401
					C585.391,291.804,585.391,280.79,578.598,273.997L578.598,273.997z"/>
			</g>
		</g>
		<g>
			<rect x="336.691" y="72.328" fill-rule="evenodd" clip-rule="evenodd" fill="#FFFFFF" width="34.79" height="422.148"/>
			<g>
				<path fill-rule="evenodd" clip-rule="evenodd" fill="#FFFFFF" d="M284.385,428.807c6.793-6.793,17.807-6.793,24.601,0
					l57.401,57.401c6.793,6.793,6.793,17.807,0,24.601l0,0c-6.793,6.793-17.807,6.793-24.601,0l-57.401-57.401
					C277.591,446.614,277.591,435.6,284.385,428.807L284.385,428.807z"/>
				<path fill-rule="evenodd" clip-rule="evenodd" fill="#FFFFFF" d="M341.786,510.808c-6.793-6.793-6.793-17.807,0-24.601
					l57.401-57.401c6.793-6.793,17.807-6.793,24.601,0l0,0c6.793,6.793,6.793,17.807,0,24.601l-57.401,57.401
					C359.593,517.602,348.579,517.602,341.786,510.808L341.786,510.808z"/>
			</g>
			<g>
				<path fill-rule="evenodd" clip-rule="evenodd" fill="#FFFFFF" d="M284.385,143.788c6.793,6.793,17.807,6.793,24.601,0
					l57.401-57.401c6.793-6.793,6.793-17.807,0-24.601l0,0c-6.793-6.793-17.807-6.793-24.601,0l-57.401,57.401
					C277.591,125.98,277.591,136.994,284.385,143.788L284.385,143.788z"/>
				<path fill-rule="evenodd" clip-rule="evenodd" fill="#FFFFFF" d="M341.786,61.786c-6.793,6.793-6.793,17.807,0,24.601
					l57.401,57.401c6.793,6.793,17.807,6.793,24.601,0l0,0c6.793-6.793,6.793-17.807,0-24.601l-57.401-57.401
					C359.593,54.992,348.579,54.992,341.786,61.786L341.786,61.786z"/>
			</g>
		</g>
	</g>
</g>
</svg>
