<?xml version="1.0" encoding="utf-8"?>
<!-- Generator: Adobe Illustrator 17.0.0, SVG Export Plug-In . SVG Version: 6.00 Build 0)  -->
<!DOCTYPE svg PUBLIC "-//W3C//DTD SVG 1.1//EN" "http://www.w3.org/Graphics/SVG/1.1/DTD/svg11.dtd">
<svg version="1.1" xmlns="http://www.w3.org/2000/svg" xmlns:xlink="http://www.w3.org/1999/xlink" x="0px" y="0px"
	 width="566.929px" height="566.929px" viewBox="0 0 566.929 566.929" enable-background="new 0 0 566.929 566.929"
	 xml:space="preserve">
<g id="图层_1" display="none">
	<rect x="0.043" y="0.022" display="inline" fill="#999999" width="566.929" height="566.929"/>
</g>
<g id="图层_2">
	<g>
		<path fill-rule="evenodd" clip-rule="evenodd" fill="#313232" d="M226.814,262.227c0,11.693-9.567,21.26-21.26,21.26h-42.52
			c-11.693,0-21.26-9.567-21.26-21.26v-42.52c0-11.693,9.567-21.26,21.26-21.26h42.52c11.693,0,21.26,9.567,21.26,21.26V262.227
			L226.814,262.227z"/>
		<path fill-rule="evenodd" clip-rule="evenodd" fill="#313232" d="M368.547,262.227c0,11.693-9.567,21.26-21.26,21.26h-42.52
			c-11.693,0-21.26-9.567-21.26-21.26v-42.52c0-11.693,9.567-21.26,21.26-21.26h42.52c11.693,0,21.26,9.567,21.26,21.26V262.227
			L368.547,262.227z"/>
		<path fill-rule="evenodd" clip-rule="evenodd" fill="#313232" d="M226.814,403.959c0,11.693-9.567,21.26-21.26,21.26h-42.52
			c-11.693,0-21.26-9.567-21.26-21.26v-42.52c0-11.693,9.567-21.26,21.26-21.26h42.52c11.693,0,21.26,9.567,21.26,21.26V403.959
			L226.814,403.959z"/>
		<path fill-rule="evenodd" clip-rule="evenodd" fill="#313232" d="M368.547,403.959c0,11.693-9.567,21.26-21.26,21.26h-42.52
			c-11.693,0-21.26-9.567-21.26-21.26v-42.52c0-11.693,9.567-21.26,21.26-21.26h42.52c11.693,0,21.26,9.567,21.26,21.26V403.959
			L368.547,403.959z"/>
		<polygon fill-rule="evenodd" clip-rule="evenodd" fill="#313232" points="460.715,127.581 510.279,78.018 510.279,56.715 
			488.976,56.715 439.413,106.279 389.849,56.715 368.547,56.715 368.547,78.018 418.11,127.581 368.547,177.145 368.547,198.448 
			389.849,198.448 439.413,148.884 488.976,198.448 510.279,198.448 510.279,177.145 460.715,127.581 		"/>
		<polygon fill-rule="evenodd" clip-rule="evenodd" fill="#313232" points="56.736,396.873 85.082,396.873 85.082,453.566 
			56.736,453.566 56.736,396.873 		"/>
		<polygon fill-rule="evenodd" clip-rule="evenodd" fill="#313232" points="56.736,311.833 85.082,311.833 85.082,368.526 
			56.736,368.526 56.736,311.833 		"/>
		<polygon fill-rule="evenodd" clip-rule="evenodd" fill="#313232" points="425.24,255.141 453.586,255.141 453.586,311.833 
			425.24,311.833 425.24,255.141 		"/>
		<polygon fill-rule="evenodd" clip-rule="evenodd" fill="#313232" points="425.24,425.219 453.586,425.219 453.586,481.912 
			425.24,481.912 425.24,425.219 		"/>
		<polygon fill-rule="evenodd" clip-rule="evenodd" fill="#313232" points="425.24,340.18 453.586,340.18 453.586,396.873 
			425.24,396.873 425.24,340.18 		"/>
		<polygon fill-rule="evenodd" clip-rule="evenodd" fill="#313232" points="56.736,226.794 85.082,226.794 85.082,283.487 
			56.736,283.487 56.736,226.794 		"/>
		<polygon fill-rule="evenodd" clip-rule="evenodd" fill="#313232" points="56.736,141.755 85.082,141.755 85.082,198.448 
			56.736,198.448 56.736,141.755 		"/>
		<polygon fill-rule="evenodd" clip-rule="evenodd" fill="#313232" points="283.507,113.408 340.2,113.408 340.2,141.755 
			283.507,141.755 283.507,113.408 		"/>
		<polygon fill-rule="evenodd" clip-rule="evenodd" fill="#313232" points="198.468,113.408 255.161,113.408 255.161,141.755 
			198.468,141.755 198.468,113.408 		"/>
		<polygon fill-rule="evenodd" clip-rule="evenodd" fill="#313232" points="113.429,113.408 170.121,113.408 170.121,141.755 
			113.429,141.755 113.429,113.408 		"/>
		<polygon fill-rule="evenodd" clip-rule="evenodd" fill="#313232" points="255.161,481.912 311.854,481.912 311.854,510.259 
			255.161,510.259 255.161,481.912 		"/>
		<polygon fill-rule="evenodd" clip-rule="evenodd" fill="#313232" points="340.2,481.912 396.893,481.912 396.893,510.259 
			340.2,510.259 340.2,481.912 		"/>
		<polygon fill-rule="evenodd" clip-rule="evenodd" fill="#313232" points="170.121,481.912 226.814,481.912 226.814,510.259 
			170.121,510.259 170.121,481.912 		"/>
		<polygon fill-rule="evenodd" clip-rule="evenodd" fill="#313232" points="85.082,481.912 141.775,481.912 141.775,510.259 
			85.082,510.259 85.082,481.912 		"/>
	</g>
</g>
</svg>
