<?xml version="1.0" encoding="utf-8"?>
<!-- Generator: Adobe Illustrator 17.0.0, SVG Export Plug-In . SVG Version: 6.00 Build 0)  -->
<!DOCTYPE svg PUBLIC "-//W3C//DTD SVG 1.1//EN" "http://www.w3.org/Graphics/SVG/1.1/DTD/svg11.dtd">
<svg version="1.1" xmlns="http://www.w3.org/2000/svg" xmlns:xlink="http://www.w3.org/1999/xlink" x="0px" y="0px"
	 width="709.661px" height="567.929px" viewBox="0 0 709.661 567.929" enable-background="new 0 0 709.661 567.929"
	 xml:space="preserve">
<g id="图层_1">
</g>
<g id="图层_2">
	<g>
		<path fill-rule="evenodd" clip-rule="evenodd" fill="#FFFFFF" d="M420.329,232.812c21.001-2.24,41.148,8.945,50.354,27.954
			c3.721,6.029,19.876,24.738,80.038,21.695l38.339-4.039V115.845c0-10.962-8.885-19.833-19.847-19.833h-57.998
			c-10.962,0-19.833,8.886-19.833,19.833v25.43c0,10.948-8.885,19.848-19.847,19.848H248.195c-10.962,0-19.833-8.886-19.833-19.848
			v-25.43c0-10.962-8.885-19.833-19.847-19.833h-58.835c-10.962,0-19.833,8.886-19.833,19.833v321.793l25.819-23.714
			c0.029-1.486,3.39-5.755,11.265-13.833c34.56-35.426,38.685-58.419,37.863-69.266c-0.615-2.183-1.082-4.404-1.399-6.65
			c-0.092-0.223-0.188-0.444-0.288-0.664l0.188-0.173c-2.622-21.575,8.95-42.384,28.661-51.538
			c19.711-9.154,43.076-4.571,57.867,11.352c6.202,6.721,10.169,14.698,11.986,23.007c2.495,7.053,9.852,21.723,29.857,31.43
			c7.659,2.596,14.77,7.083,20.626,13.443c17.775,9.242,28.343,28.179,26.875,48.16c-1.468,19.981-14.689,37.17-33.625,43.715
			c-18.935,6.544-39.949,1.188-53.441-13.623c-6.65-2.64-30.997-7.674-77.327,30.623l-56.036,51.625h410.474
			c10.962,0,19.847-8.885,19.847-19.833V352.663l-18.246,1.933c-0.865,1.154-6.029,2.596-17.164,4.385
			c-48.853,7.789-65.802,23.771-71.672,32.96c-0.803,2.133-1.748,4.21-2.827,6.217c-0.13,0.462-0.144,0.707-0.144,0.707
			l-0.289,0.029c-7.962,14.054-22.23,23.389-38.295,25.055c-13.2,1.406-26.418-2.489-36.745-10.829
			c-10.328-8.34-16.919-20.441-18.325-33.641c-0.937-8.811,0.508-17.713,4.183-25.776c2.178-7.212,4.933-23.267-5.279-42.854
			c-9.969-14.545-11.544-33.266-4.145-49.273C387.509,245.568,402.79,234.64,420.329,232.812L420.329,232.812z M347.993,306.462
			c-13.631,3.635-41.108-33.161-41.108-33.161c-18.448-20.901,34.386-41.701,43.041-35.34
			C358.566,244.308,361.595,302.842,347.993,306.462L347.993,306.462z"/>
		<path fill-rule="evenodd" clip-rule="evenodd" fill="#FFFFFF" d="M469.11,72.154c0-10.962-8.885-19.833-19.847-19.833H270.48
			c-10.962,0-19.833,8.885-19.833,19.833v47.701c0,10.948,8.871,19.833,19.833,19.833h178.769c10.962,0,19.847-8.886,19.847-19.833
			V72.154H469.11L469.11,72.154z"/>
	</g>
</g>
</svg>
