<?xml version="1.0" encoding="iso-8859-1"?>
<!-- Generator: Adobe Illustrator 18.1.1, SVG Export Plug-In . SVG Version: 6.00 Build 0)  -->
<svg version="1.1" id="Capa_1" xmlns="http://www.w3.org/2000/svg" xmlns:xlink="http://www.w3.org/1999/xlink" x="0px" y="0px"
	 viewBox="0 0 13.92 13.92" style="enable-background:new 0 0 13.92 13.92;" xml:space="preserve">
<g>
	<g>
		<circle style="fill:#030104;" cx="5.569" cy="10.444" r="0.629"/>
		<circle style="fill:#030104;" cx="8.265" cy="10.444" r="0.629"/>
		<path style="fill:#030104;" d="M12.723,0H1.196C0.537,0,0,0.537,0,1.197v11.527c0,0.659,0.537,1.196,1.196,1.196h11.527
			c0.659,0,1.197-0.537,1.197-1.196V1.197C13.921,0.537,13.382,0,12.723,0z M10.915,4.802H7.489v1.284h2.732
			c0.292,0,0.529,0.237,0.529,0.529s-0.237,0.529-0.529,0.529H7.489v1.687c0.254-0.051,0.42-0.114,0.42-0.114
			C8.12,8.599,8.361,8.529,8.621,8.529c0.797,0,1.443,0.646,1.443,1.444c0,0.156-0.025,0.307-0.073,0.445h0.023
			c-0.021,0.038-0.043,0.072-0.062,0.107c-0.052,0.123-0.119,0.237-0.201,0.34c-2.835,4.621-5.058,1.065-5.661-0.107
			c-0.147-0.227-0.235-0.495-0.235-0.785c0-0.798,0.647-1.444,1.444-1.444c0.125,0,0.245,0.017,0.36,0.047
			C5.717,8.581,5.79,8.604,5.886,8.653c0.001,0,0.003,0.002,0.004,0.002c0.001,0.002,0.003,0.002,0.005,0.003
			C6.07,8.749,6.252,8.807,6.431,8.843V7.144H3.698c-0.292,0-0.529-0.236-0.529-0.529s0.237-0.529,0.529-0.529h2.733V4.802H3.007
			c-0.292,0-0.529-0.236-0.529-0.529c0-0.292,0.237-0.529,0.529-0.529h3.425V2.46h-1.55c-0.292,0-0.528-0.237-0.528-0.529
			c0-0.292,0.237-0.528,0.528-0.528h1.55V1.276c0-0.292,0.237-0.529,0.528-0.529s0.529,0.237,0.529,0.529v0.126h1.549
			c0.291,0,0.529,0.236,0.529,0.528c0,0.292-0.238,0.529-0.529,0.529H7.489v1.284h3.426c0.29,0,0.528,0.237,0.528,0.529
			C11.443,4.565,11.205,4.802,10.915,4.802z"/>
	</g>
</g>
<g>
</g>
<g>
</g>
<g>
</g>
<g>
</g>
<g>
</g>
<g>
</g>
<g>
</g>
<g>
</g>
<g>
</g>
<g>
</g>
<g>
</g>
<g>
</g>
<g>
</g>
<g>
</g>
<g>
</g>
</svg>
