<?xml version="1.0" encoding="utf-8"?>
<!-- Generator: Adobe Illustrator 17.0.0, SVG Export Plug-In . SVG Version: 6.00 Build 0)  -->
<!DOCTYPE svg PUBLIC "-//W3C//DTD SVG 1.1//EN" "http://www.w3.org/Graphics/SVG/1.1/DTD/svg11.dtd">
<svg version="1.1" xmlns="http://www.w3.org/2000/svg" xmlns:xlink="http://www.w3.org/1999/xlink" x="0px" y="0px"
	 width="709.661px" height="567.929px" viewBox="0 0 709.661 567.929" enable-background="new 0 0 709.661 567.929"
	 xml:space="preserve">
<g id="图层_1">
</g>
<g id="图层_2">
	<g>
		<path fill-rule="evenodd" clip-rule="evenodd" fill="#FFFFFF" d="M592.056,364.889c-3.329,0-6.503,0.68-9.406,1.878v-0.008
			l-0.106,0.041l-0.106,0.041l-228.189,94.426l-228.18-94.418c-0.034-0.017-0.07-0.031-0.107-0.041l-0.107-0.041l-0.008,0.008
			c-12.43-4.698-26.345,1.324-31.428,13.602c-5.083,12.278,0.503,26.373,12.617,31.836v0.008l237.594,98.313
			c0.034,0.017,0.07,0.031,0.106,0.041l0.106,0.041l0.008-0.008c6.015,2.515,12.786,2.518,18.804,0.008l0.008,0.008l0.107-0.041
			c0.034-0.017,0.07-0.031,0.106-0.041l237.586-98.313v-0.008c10.845-4.488,17.009-16.014,14.721-27.526
			C613.896,373.182,603.794,364.89,592.056,364.889L592.056,364.889z M107.044,199.006v0.008l237.594,98.313l0.107,0.041
			l0.106,0.041l0.008-0.008c6.01,2.521,12.782,2.524,18.795,0.008l0.008,0.008l0.107-0.041c0.034-0.017,0.07-0.031,0.106-0.041
			l237.586-98.313v-0.008c9.193-3.811,15.188-12.78,15.195-22.731c-0.004-9.95-6.001-18.919-15.195-22.723v-0.008L363.876,55.239
			c-0.034-0.017-0.07-0.031-0.106-0.041l-0.107-0.041l-0.008,0.008c-6.017-2.507-12.785-2.51-18.804-0.008l-0.008-0.008
			l-0.106,0.041c-0.034,0.017-0.07,0.031-0.106,0.041l-237.594,98.321v0.008c-9.194,3.804-15.191,12.773-15.195,22.723
			C91.846,186.236,97.847,195.205,107.044,199.006L107.044,199.006z M592.056,258.286c-3.329,0-6.503,0.68-9.406,1.878v-0.008
			l-0.106,0.049c-0.034,0.017-0.07,0.031-0.106,0.041l-228.189,94.418l-228.18-94.418c-0.034-0.017-0.07-0.031-0.107-0.041
			l-0.107-0.049l-0.008,0.008c-12.453-4.783-26.45,1.23-31.552,13.556c-5.102,12.326,0.55,26.473,12.74,31.89v0.008l237.594,98.313
			l0.106,0.041l0.106,0.041l0.008-0.008c6.015,2.515,12.786,2.518,18.804,0.008l0.008,0.008l0.107-0.041
			c0.034-0.017,0.07-0.031,0.106-0.041l237.586-98.313v-0.008c10.845-4.488,17.009-16.014,14.721-27.526
			C613.896,266.579,603.794,258.287,592.056,258.286L592.056,258.286z"/>
	</g>
</g>
</svg>
