<?xml version="1.0" encoding="utf-8"?>
<!-- Generator: Adobe Illustrator 17.0.0, SVG Export Plug-In . SVG Version: 6.00 Build 0)  -->
<!DOCTYPE svg PUBLIC "-//W3C//DTD SVG 1.1//EN" "http://www.w3.org/Graphics/SVG/1.1/DTD/svg11.dtd">
<svg version="1.1" xmlns="http://www.w3.org/2000/svg" xmlns:xlink="http://www.w3.org/1999/xlink" x="0px" y="0px"
	 width="709.661px" height="567.929px" viewBox="0 0 709.661 567.929" enable-background="new 0 0 709.661 567.929"
	 xml:space="preserve">
<g id="图层_1">
</g>
<g id="图层_2">
	<g>
		<path fill-rule="evenodd" clip-rule="evenodd" fill="#FFFFFF" d="M375.189,511.533c-126.804,0-229.605-102.804-229.605-229.606
			c0-126.804,102.801-229.606,229.605-229.606s229.608,102.802,229.608,229.605C604.797,408.728,501.993,511.533,375.189,511.533
			L375.189,511.533 M567.213,354.433h-57.267c-18.101,57.816-59.057,105.259-112.218,131.459
			C475.686,477.346,540.421,425.308,567.213,354.433L567.213,354.433 M496.037,287.969c0-18.355-2.479-36.628-6.89-54.381H387.276
			v96.676h104.35C494.429,316.597,496.037,302.482,496.037,287.969L496.037,287.969 M363.108,354.433h-95.421
			c17.679,46.647,52.098,90.369,95.673,113.67L363.108,354.433L363.108,354.433 M363.108,330.266V233.59H259.842
			c-3.576,15.843-5.497,32.074-5.497,48.336c0,16.665,2.007,32.845,5.752,48.34H363.108L363.108,330.266 M363.108,209.418V92.539
			c-44.314,25.111-78.864,66.211-96.28,116.88H363.108L363.108,209.418 M481.801,209.418
			c-17.932-49.136-51.698-91.768-94.525-116.338v116.338H481.801L481.801,209.418 M387.276,354.433v116.751
			c45.715-24.759,81.098-66.38,97.931-116.751H387.276L387.276,354.433 M363.108,486.891v-4.457V486.891
			c-56.001-23.684-100.049-74.85-120.459-132.458h-59.481C211.141,428.475,280.509,482.07,363.108,486.891L363.108,486.891
			 M175.916,232.84c-4.011,16.036-6.161,31.819-6.161,49.086c0,16.689,2.212,32.811,5.957,48.34h60.024
			c-3.54-15.554-5.56-31.697-5.56-48.34c0-16.325,1.957-32.493,5.368-48.336h-53.706
			C179.735,233.589,177.632,233.793,175.916,232.84L175.916,232.84 M183.167,209.418h58.755
			c18.03-55.129,61.341-104.396,109.74-131.987C276.69,88.139,209.185,140.573,183.167,209.418L183.167,209.418 M396.485,77.844
			c50.693,26.198,90.417,74.961,110.1,131.574h60.628C540.289,138.17,474.997,85.975,396.485,77.844L396.485,77.844 M513.73,233.589
			c4.202,17.739,6.473,35.999,6.473,54.381c0,14.488-1.532,28.592-4.166,42.295h58.634c3.758-15.529,5.957-31.651,5.957-48.34
			c0-16.689-2.212-32.807-5.957-48.336H513.73L513.73,233.589 M513.73,233.589L513.73,233.589z"/>
	</g>
</g>
</svg>
