<?xml version="1.0" encoding="utf-8"?>
<!-- Generator: Adobe Illustrator 17.0.0, SVG Export Plug-In . SVG Version: 6.00 Build 0)  -->
<!DOCTYPE svg PUBLIC "-//W3C//DTD SVG 1.1//EN" "http://www.w3.org/Graphics/SVG/1.1/DTD/svg11.dtd">
<svg version="1.1" xmlns="http://www.w3.org/2000/svg" xmlns:xlink="http://www.w3.org/1999/xlink" x="0px" y="0px"
	 width="566.929px" height="566.929px" viewBox="0 0 566.929 566.929" enable-background="new 0 0 566.929 566.929"
	 xml:space="preserve">
<g id="图层_1" display="none">
	<rect x="-0.007" y="0.022" display="inline" fill="#999999" width="566.929" height="566.929"/>
</g>
<g id="图层_2">
	<g>
		<path fill-rule="evenodd" clip-rule="evenodd" fill="#313232" d="M283.456,510.259c-125.238,0-226.77-101.535-226.77-226.772
			c0-125.238,101.532-226.772,226.77-226.772s226.773,101.533,226.773,226.77C510.229,408.724,408.694,510.259,283.456,510.259
			L283.456,510.259 M473.109,355.098h-56.56C398.671,412.2,358.22,459.057,305.715,484.934
			C382.712,476.494,446.648,425.098,473.109,355.098L473.109,355.098 M402.811,289.455c0-18.129-2.449-36.176-6.805-53.709H295.393
			v95.482h103.062C401.224,317.729,402.811,303.789,402.811,289.455L402.811,289.455 M271.524,355.098h-94.242
			c17.461,46.071,51.454,89.253,94.492,112.267L271.524,355.098L271.524,355.098 M271.524,331.23v-95.482h-101.99
			c-3.532,15.647-5.43,31.678-5.43,47.739c0,16.46,1.983,32.44,5.681,47.743H271.524L271.524,331.23 M271.524,211.874V96.437
			c-43.767,24.801-77.891,65.394-95.091,115.437H271.524L271.524,211.874 M388.752,211.874
			c-17.711-48.529-51.06-90.635-93.358-114.902v114.902H388.752L388.752,211.874 M295.393,355.098v115.309
			c45.151-24.454,80.096-65.56,96.722-115.309H295.393L295.393,355.098 M271.524,485.921v-4.402V485.921
			c-55.31-23.392-98.814-73.926-118.972-130.823H93.805C121.433,428.226,189.945,481.16,271.524,485.921L271.524,485.921
			 M86.643,235.007c-3.961,15.838-6.085,31.427-6.085,48.48c0,16.483,2.185,32.405,5.883,47.743h59.283
			c-3.496-15.362-5.491-31.306-5.491-47.743c0-16.124,1.933-32.092,5.302-47.739H92.491
			C90.415,235.746,88.338,235.948,86.643,235.007L86.643,235.007 M93.805,211.874h58.029
			c17.807-54.448,60.584-103.108,108.385-130.357C186.172,92.092,119.501,143.879,93.805,211.874L93.805,211.874 M304.489,81.924
			c50.067,25.875,89.301,74.035,108.741,129.95h59.879C446.518,141.505,382.032,89.955,304.489,81.924L304.489,81.924
			 M420.286,235.746c4.15,17.52,6.393,35.554,6.393,53.709c0,14.309-1.513,28.239-4.114,41.773h57.91
			c3.712-15.337,5.883-31.26,5.883-47.743s-2.185-32.402-5.883-47.739H420.286L420.286,235.746 M420.286,235.746"/>
	</g>
</g>
</svg>
