<?xml version="1.0" encoding="utf-8"?>
<!-- Generator: Adobe Illustrator 17.0.0, SVG Export Plug-In . SVG Version: 6.00 Build 0)  -->
<!DOCTYPE svg PUBLIC "-//W3C//DTD SVG 1.1//EN" "http://www.w3.org/Graphics/SVG/1.1/DTD/svg11.dtd">
<svg version="1.1" xmlns="http://www.w3.org/2000/svg" xmlns:xlink="http://www.w3.org/1999/xlink" x="0px" y="0px"
	 width="566.929px" height="566.929px" viewBox="0 0 566.929 566.929" enable-background="new 0 0 566.929 566.929"
	 xml:space="preserve">
<g id="图层_1" display="none">
	<rect x="0.043" y="0.014" display="inline" fill="#999999" width="566.929" height="566.929"/>
</g>
<g id="图层_2">
	<g>
		<g>
			<path fill="#323333" d="M408.487,123.24c-4.613,0-8.974,2.672-10.913,7.144c-2.605,6.007,0.175,12.96,6.211,15.546
				c19.254,8.246,31.676,28.001,31.676,50.327c0,21.269-11.58,40.693-29.261,49.381c-8.769,3.61-14.44,12.045-14.44,21.474
				c0,9.428,5.909,18.116,16.172,22.057l2.987,0.757c22.32,6.117,42.367,20.197,56.426,39.701
				c14.329,19.866,21.906,43.815,21.906,69.263v6.78h-4.464c-6.577,0-11.914,5.298-11.914,11.825
				c0,6.528,5.338,11.825,11.914,11.825h16.378c6.577,0,11.914-5.298,11.914-11.825V398.89c-0.016-30.414-9.118-59.109-26.37-83.027
				c-17.22-23.887-41.907-41.182-69.675-48.782l-0.493-0.126l0.016-0.032c25.957-12.74,42.716-40.473,42.716-70.666
				c0-31.77-18.078-60.056-46.037-72.038C411.682,123.555,410.069,123.24,408.487,123.24L408.487,123.24z"/>
		</g>
		<g>
			<path fill="#323333" d="M158.474,123.249c-1.576,0-3.175,0.312-4.713,0.97c-27.975,11.999-46.053,40.284-46.053,72.054
				c0,29.988,16.553,57.548,43.161,70.603l-1.112,0.3c-27.562,7.536-52.248,24.832-69.469,48.719
				c-17.252,23.886-26.354,52.598-26.354,83.027v18.605c0,6.527,5.338,11.825,11.914,11.825h16.378
				c6.577,0,11.914-5.298,11.914-11.825s-5.338-11.825-11.914-11.825h-4.48v-6.78c0-25.494,7.578-49.444,21.891-69.278
				c14.075-19.488,34.106-33.583,56.362-39.669l4.48-1.245c8.832-3.485,14.757-12.156,14.757-21.6
				c0-9.445-5.671-17.88-14.233-21.364c-17.903-8.798-29.468-28.222-29.468-49.491c0-22.325,12.423-42.082,31.676-50.327
				c6.037-2.586,8.817-9.539,6.211-15.546C167.483,125.923,163.087,123.249,158.474,123.249L158.474,123.249z"/>
		</g>
		<g>
			<path fill="#323333" d="M283.571,56.707c-61.382,0-111.343,53.89-111.343,120.142c0,34.939,14.011,67.45,38.412,90.343
				c-31.39,14.774-58.238,38.534-77.808,69.121c-21.144,33.031-32.328,71.738-32.328,111.943v38.77
				c0,12.818,9.722,23.224,21.668,23.224h322.766c11.962,0,21.684-10.406,21.684-23.224v-38.77
				c0-40.221-11.184-78.928-32.328-111.959c-19.555-30.587-46.402-54.348-77.793-69.105c24.401-22.908,38.412-55.42,38.412-90.343
				C394.914,110.597,344.954,56.707,283.571,56.707L283.571,56.707z M124.364,486.6v-38.344c0-35.712,9.897-70.02,28.61-99.251
				c18.11-28.286,43.146-49.902,72.407-62.546l11.787-5.093c0.079-0.032,0.111-0.11,0.19-0.142c1.525-0.693,2.939-1.64,4.083-2.996
				c0.095-0.095,0.111-0.237,0.191-0.331c0.27-0.331,0.381-0.725,0.62-1.088c0.778-1.214,1.35-2.46,1.636-3.8
				c0.064-0.252,0.271-0.441,0.302-0.709c0.048-0.347-0.127-0.662-0.111-0.994c0.08-1.308-0.063-2.554-0.397-3.815
				c-0.143-0.52-0.206-1.009-0.412-1.513c-0.699-1.64-1.652-3.185-3.114-4.415l-9.754-8.293
				c-21.811-18.51-34.313-46.354-34.313-76.405c0-53.212,39.269-96.492,87.514-96.492s87.515,43.28,87.515,96.492
				c0,30.036-12.502,57.895-34.329,76.421l-9.738,8.277c-1.446,1.23-2.415,2.775-3.114,4.415c-0.206,0.489-0.27,0.993-0.413,1.513
				c-0.35,1.261-0.493,2.507-0.397,3.815c0.016,0.347-0.159,0.662-0.111,0.994c0.048,0.268,0.254,0.457,0.302,0.709
				c0.286,1.34,0.857,2.602,1.636,3.8c0.239,0.363,0.35,0.757,0.62,1.088c0.08,0.111,0.095,0.237,0.191,0.331
				c1.207,1.387,2.653,2.412,4.226,3.106c0.016,0.016,0.031,0.032,0.048,0.032l11.803,5.093
				c29.246,12.629,54.281,34.261,72.407,62.53c18.713,29.232,28.61,63.555,28.61,99.267l-0.111,38.344H124.364L124.364,486.6z"/>
		</g>
	</g>
</g>
</svg>
