<?xml version="1.0" encoding="utf-8"?>
<!-- Generator: Adobe Illustrator 17.0.0, SVG Export Plug-In . SVG Version: 6.00 Build 0)  -->
<!DOCTYPE svg PUBLIC "-//W3C//DTD SVG 1.1//EN" "http://www.w3.org/Graphics/SVG/1.1/DTD/svg11.dtd">
<svg version="1.1" xmlns="http://www.w3.org/2000/svg" xmlns:xlink="http://www.w3.org/1999/xlink" x="0px" y="0px"
	 width="566.929px" height="566.929px" viewBox="0 0 566.929 566.929" enable-background="new 0 0 566.929 566.929"
	 xml:space="preserve">
<g id="图层_1" display="none">
	<rect x="0.004" y="0.014" display="inline" fill="#999999" width="566.929" height="566.929"/>
</g>
<g id="图层_2">
	<g>
		<g>
			<path fill="#323333" d="M360.526,56.707c-7.631,0-15.236,3.106-20.814,9.233L64.185,368.882
				c-5.011,5.556-7.914,12.858-7.437,20.596c0.272,7.738,3.583,14.786,9.07,19.838l103.331,96.343
				c3.107,2.87,7.166,4.592,11.496,4.592h320.674v-34.418H303.953l198.839-225.473c2.614-2.756,4.152-6.378,4.331-10.194
				l3.107-45.783c0.17-5.141-1.835-10.111-5.51-13.662L379.643,64.241C374.211,59.198,367.358,56.707,360.526,56.707L360.526,56.707
				z M295.381,434.228L162.867,310.814L360.913,93.079l115.009,107.294l-2.086,31.709L295.381,434.228L295.381,434.228z
				 M187.357,475.924l-94.465-88.146l47.051-51.753l132.877,123.78l-14.217,16.118H187.357L187.357,475.924z"/>
		</g>
	</g>
</g>
</svg>
