<?xml version="1.0" encoding="utf-8"?>
<!-- Generator: Adobe Illustrator 17.0.0, SVG Export Plug-In . SVG Version: 6.00 Build 0)  -->
<!DOCTYPE svg PUBLIC "-//W3C//DTD SVG 1.1//EN" "http://www.w3.org/Graphics/SVG/1.1/DTD/svg11.dtd">
<svg version="1.1" xmlns="http://www.w3.org/2000/svg" xmlns:xlink="http://www.w3.org/1999/xlink" x="0px" y="0px"
	 width="566.929px" height="566.929px" viewBox="0 0 566.929 566.929" enable-background="new 0 0 566.929 566.929"
	 xml:space="preserve">
<g id="图层_1" display="none">
	<rect x="0.043" y="0.06" display="inline" fill="#999999" width="566.929" height="566.929"/>
</g>
<g id="图层_2">
	<g>
		<g>
			<path fill="#313232" d="M283.507,83.918c53.317,0,103.442,20.763,141.143,58.463s58.463,87.826,58.463,141.143
				s-20.763,103.442-58.463,141.143c-37.701,37.701-87.826,58.463-141.143,58.463s-103.442-20.763-141.143-58.463
				c-37.701-37.701-58.463-87.826-58.463-141.143s20.763-103.442,58.463-141.143C180.065,104.681,230.191,83.918,283.507,83.918
				 M283.507,53.918c-126.808,0-229.606,102.798-229.606,229.606s102.798,229.606,229.606,229.606s229.606-102.798,229.606-229.606
				S410.315,53.918,283.507,53.918L283.507,53.918z"/>
		</g>
		<g>
			<path fill-rule="evenodd" clip-rule="evenodd" fill="#313232" d="M302.203,339.099c-6.398,6.154-10.879,10.002-13.866,12.433
				c1.465-7.971,5.274-23.79,14.446-54.933c9.143-30.869,9.936-36.252,9.936-38.901c0-4.616-1.922-8.708-5.242-11.541
				c-7.468-6.215-20.632-4.984-36.542,4.094c-8.868,5.017-18.286,13.202-28.8,24.837l-5.484,6.154l18.194,14.158l4.662-4.646
				c5.06-4.957,8.503-8.188,10.788-10.343c-13.897,46.102-20.663,74.755-20.663,87.588c0,5.816,1.676,10.648,5.06,14.308
				c3.414,3.757,8.198,5.725,13.683,5.725c5.365,0,11.522-2.092,18.988-6.37c6.735-3.846,16.852-12.281,30.993-25.696l5.73-5.542
				l-16.548-16.248L302.203,339.099L302.203,339.099"/>
			<path fill-rule="evenodd" clip-rule="evenodd" fill="#313232" d="M296.505,186.054c-4.144,4.586-6.279,10.155-6.279,16.588
				c0,5.293,1.707,9.909,5.06,13.48c3.414,3.63,7.831,5.508,12.861,5.508c4.082,0,10.148-1.263,15.694-7.478
				c4.33-4.71,6.522-10.371,6.522-16.68c0-5.17-1.767-9.695-5.151-13.203C317.838,176.607,304.429,177.437,296.505,186.054
				L296.505,186.054"/>
		</g>
	</g>
</g>
</svg>
