<?xml version="1.0" encoding="utf-8"?>
<!-- Generator: Adobe Illustrator 17.0.0, SVG Export Plug-In . SVG Version: 6.00 Build 0)  -->
<!DOCTYPE svg PUBLIC "-//W3C//DTD SVG 1.1//EN" "http://www.w3.org/Graphics/SVG/1.1/DTD/svg11.dtd">
<svg version="1.1" xmlns="http://www.w3.org/2000/svg" xmlns:xlink="http://www.w3.org/1999/xlink" x="0px" y="0px"
	 width="566.929px" height="566.929px" viewBox="0 0 566.929 566.929" enable-background="new 0 0 566.929 566.929"
	 xml:space="preserve">
<g id="图层_1" display="none">
	<rect x="0.004" y="0.06" display="inline" fill="#999999" width="566.929" height="566.929"/>
</g>
<g id="图层_2">
	<g>
		<path fill-rule="evenodd" clip-rule="evenodd" fill="#313232" d="M488.979,354.388c-2.877,0-5.619,0.588-8.129,1.623v-0.007
			l-0.092,0.035l-0.092,0.035l-197.199,81.602L86.276,356.082c-0.029-0.015-0.06-0.027-0.092-0.035l-0.092-0.035l-0.007,0.007
			c-10.742-4.06-22.767,1.144-27.16,11.754c-4.393,10.611,0.435,22.792,10.903,27.513v0.007l205.327,84.961
			c0.029,0.015,0.06,0.027,0.092,0.035l0.092,0.035l0.007-0.007c5.198,2.174,11.05,2.176,16.25,0.007l0.007,0.007l0.092-0.035
			c0.029-0.015,0.06-0.027,0.092-0.035l205.32-84.962v-0.007c9.373-3.879,14.699-13.839,12.722-23.788
			C507.853,361.555,499.123,354.389,488.979,354.388L488.979,354.388z M69.835,211.033v0.007l205.327,84.961l0.092,0.035
			l0.092,0.035l0.007-0.007c5.194,2.179,11.046,2.181,16.243,0.007l0.007,0.007l0.092-0.035c0.029-0.015,0.06-0.027,0.092-0.035
			l205.32-84.962v-0.007c7.944-3.294,13.125-11.045,13.131-19.644c-0.003-8.599-5.186-16.35-13.131-19.637v-0.007l-205.32-84.961
			c-0.029-0.015-0.06-0.027-0.092-0.035l-0.092-0.035l-0.007,0.007c-5.2-2.166-11.048-2.169-16.25-0.007l-0.007-0.007l-0.092,0.035
			c-0.029,0.015-0.06,0.027-0.092,0.035L69.828,171.752v0.007c-7.946,3.288-13.128,11.038-13.131,19.637
			C56.701,199.997,61.887,207.748,69.835,211.033L69.835,211.033z M488.979,262.262c-2.877,0-5.619,0.588-8.129,1.623v-0.007
			l-0.092,0.043c-0.029,0.015-0.06,0.027-0.092,0.035l-197.199,81.595L86.276,263.956c-0.029-0.015-0.06-0.027-0.092-0.035
			l-0.092-0.043l-0.007,0.007c-10.762-4.134-22.858,1.063-27.267,11.715c-4.409,10.652,0.475,22.878,11.01,27.559v0.007
			l205.327,84.961l0.092,0.035l0.092,0.035l0.007-0.007c5.198,2.174,11.05,2.176,16.25,0.007l0.007,0.007l0.092-0.035
			c0.029-0.015,0.06-0.027,0.092-0.035l205.32-84.962v-0.007c9.373-3.879,14.699-13.839,12.722-23.788
			C507.853,269.429,499.123,262.263,488.979,262.262L488.979,262.262z"/>
	</g>
</g>
</svg>
