<?xml version="1.0" encoding="utf-8"?>
<!-- Generator: Adobe Illustrator 17.0.0, SVG Export Plug-In . SVG Version: 6.00 Build 0)  -->
<!DOCTYPE svg PUBLIC "-//W3C//DTD SVG 1.1//EN" "http://www.w3.org/Graphics/SVG/1.1/DTD/svg11.dtd">
<svg version="1.1" xmlns="http://www.w3.org/2000/svg" xmlns:xlink="http://www.w3.org/1999/xlink" x="0px" y="0px"
	 width="566.929px" height="566.929px" viewBox="0 0 566.929 566.929" enable-background="new 0 0 566.929 566.929"
	 xml:space="preserve">
<g id="图层_1" display="none">
	<rect x="0.043" y="0.123" display="inline" fill="#999999" width="566.929" height="566.929"/>
</g>
<g id="图层_2">
	<path fill-rule="evenodd" clip-rule="evenodd" fill="#313232" d="M505.247,271.44l-56.693-56.693
		c-6.709-6.709-17.587-6.709-24.297,0c-6.709,6.709-6.709,17.587,0,24.297l27.364,27.364H300.688V115.474l27.364,27.364
		c6.709,6.709,17.587,6.709,24.297,0c6.709-6.709,6.709-17.587,0-24.297l-56.693-56.693c-6.709-6.709-17.587-6.709-24.297,0
		l-56.693,56.693c-6.709,6.709-6.709,17.587,0,24.297c6.709,6.709,17.587,6.709,24.297,0l27.364-27.364v150.933H115.393
		l27.364-27.364c6.709-6.709,6.709-17.587,0-24.297c-6.709-6.709-17.588-6.709-24.297,0L61.768,271.44
		c-6.709,6.709-6.709,17.587,0,24.297l56.693,56.693c6.709,6.709,17.587,6.709,24.297,0c6.709-6.709,6.709-17.587,0-24.297
		l-27.364-27.364h150.933v150.933l-27.364-27.364c-6.709-6.709-17.587-6.709-24.297,0c-6.709,6.709-6.709,17.587,0,24.297
		l56.693,56.693c6.709,6.709,17.588,6.709,24.297,0l56.693-56.693c6.709-6.709,6.709-17.587,0-24.297
		c-6.709-6.709-17.587-6.709-24.297,0l-27.364,27.364V300.769h150.933l-27.364,27.364c-6.709,6.709-6.709,17.587,0,24.297
		c6.709,6.709,17.587,6.709,24.297,0l56.693-56.693C511.956,289.027,511.956,278.149,505.247,271.44z"/>
</g>
</svg>
