<?xml version="1.0" encoding="utf-8"?>
<!-- Generator: Adobe Illustrator 17.0.0, SVG Export Plug-In . SVG Version: 6.00 Build 0)  -->
<!DOCTYPE svg PUBLIC "-//W3C//DTD SVG 1.1//EN" "http://www.w3.org/Graphics/SVG/1.1/DTD/svg11.dtd">
<svg version="1.1" xmlns="http://www.w3.org/2000/svg" xmlns:xlink="http://www.w3.org/1999/xlink" x="0px" y="0px"
	 width="566.929px" height="566.929px" viewBox="0 0 566.929 566.929" enable-background="new 0 0 566.929 566.929"
	 xml:space="preserve">
<g id="图层_1" display="none">
	<rect x="0.004" y="0.123" display="inline" fill="#999999" width="566.929" height="566.929"/>
</g>
<g id="图层_2">
	<g>
		<path fill-rule="evenodd" clip-rule="evenodd" fill="#313232" d="M453.999,425.482c-4.54,17.198-11.72,28.379-26.392,28.379
			H85.075H65.92h-9.223l0.426-315.061c0-14.048,11.834-25.484,26.421-25.484H198.59c14.558,0,28.379,14.331,28.379,28.379h198.651
			v28.378H198.59c0-16.091-11.153-28.378-28.378-28.378h-56.758c-16.034,0-28.379,12.94-28.379,28.378v166.328l28.379-109.57
			c2.923-11.493,15.523-26.704,28.379-28.379h340.545c20.261,0,29.91,14.019,27.499,25.683L453.999,425.482L453.999,425.482z
			 M141.833,226.831L85.075,425.482h340.545l56.757-198.651H141.833L141.833,226.831z"/>
	</g>
</g>
</svg>
