<?xml version="1.0" encoding="utf-8"?>
<!-- Generator: Adobe Illustrator 17.0.0, SVG Export Plug-In . SVG Version: 6.00 Build 0)  -->
<!DOCTYPE svg PUBLIC "-//W3C//DTD SVG 1.1//EN" "http://www.w3.org/Graphics/SVG/1.1/DTD/svg11.dtd">
<svg version="1.1" xmlns="http://www.w3.org/2000/svg" xmlns:xlink="http://www.w3.org/1999/xlink" x="0px" y="0px"
	 width="566.929px" height="566.929px" viewBox="0 0 566.929 566.929" enable-background="new 0 0 566.929 566.929"
	 xml:space="preserve">
<g id="图层_1" display="none">
	<rect x="0.087" y="0.123" display="inline" fill="#999999" width="566.929" height="566.929"/>
</g>
<g id="图层_2">
	<g>
		<path fill-rule="evenodd" clip-rule="evenodd" fill="#313232" d="M476.767,155.559L372.121,66.016
			c-5.914-5.053-17.593-9.199-25.934-9.199H173.445c-8.341,0-15.166,5.831-15.166,12.958v54.296H94.733
			c-8.341,0-15.166,5.831-15.166,12.958v360.372c0,7.127,6.825,12.959,15.166,12.959h299.076c8.341,0,15.167-5.831,15.167-12.959
			v-54.166h63.395c8.341,0,15.167-5.831,15.167-12.959V177.588C487.535,170.46,482.682,160.613,476.767,155.559L476.767,155.559
			L476.767,155.559L476.767,155.559z M310.092,388.291c0,7.127-6.825,12.958-15.167,12.958H193.768c-3.791,0-7.128-1.165-9.858-3.11
			c-3.185-2.462-5.307-5.96-5.307-9.848v-1.555c0-7.127,6.824-12.959,15.167-12.959h101.156c8.341,0,15.167,5.831,15.167,12.959
			V388.291L310.092,388.291L310.092,388.291L310.092,388.291z M310.092,333.347c0,7.127-6.825,12.958-15.167,12.958H193.768
			c-3.64,0-6.977-1.036-9.555-2.98c-3.489-2.332-5.611-5.961-5.611-9.978v-1.555c0-7.127,6.824-12.959,15.167-12.959h101.156
			c8.341,0,15.167,5.831,15.167,12.959V333.347L310.092,333.347L310.092,333.347L310.092,333.347z M310.092,278.534
			c0,7.127-6.825,12.959-15.167,12.959H193.768c-8.341,0-15.166-5.831-15.166-12.959v-1.555c0-7.127,6.824-12.959,15.166-12.959
			h101.157c8.341,0,15.167,5.831,15.167,12.959V278.534L310.092,278.534L310.092,278.534L310.092,278.534z M438.397,388.291
			c0,6.09-4.853,11.145-11.526,12.57c-1.214,0.259-2.427,0.388-3.64,0.388h-14.256V244.842c0-7.127-4.854-17.105-10.768-22.159
			L293.561,133.14c-5.914-4.924-17.593-9.071-25.934-9.071h-60.21v-12.31c0-1.037,0.152-2.074,0.456-3.11
			c1.668-5.702,7.583-9.848,14.711-9.848h103.281c8.342,0,20.02,4.146,25.782,9.2l75.982,64.921
			c5.915,5.054,10.768,15.033,10.768,22.159V388.291L438.397,388.291L438.397,388.291L438.397,388.291z"/>
	</g>
</g>
</svg>
