<?xml version="1.0" encoding="utf-8"?>
<!-- Generator: Adobe Illustrator 17.0.0, SVG Export Plug-In . SVG Version: 6.00 Build 0)  -->
<!DOCTYPE svg PUBLIC "-//W3C//DTD SVG 1.1//EN" "http://www.w3.org/Graphics/SVG/1.1/DTD/svg11.dtd">
<svg version="1.1" xmlns="http://www.w3.org/2000/svg" xmlns:xlink="http://www.w3.org/1999/xlink" x="0px" y="0px"
	 width="566.929px" height="566.929px" viewBox="0 0 566.929 566.929" enable-background="new 0 0 566.929 566.929"
	 xml:space="preserve">
<g id="图层_1" display="none">
	<rect x="0.043" y="-0.002" display="inline" fill="#999999" width="566.929" height="566.929"/>
</g>
<g id="图层_2">
	<g>
		<g>
			<path fill="#313232" d="M480.279,86.691v393.543H285.161V86.691H480.279 M481.933,56.691H283.507
				c-15.651,0-28.346,12.693-28.346,28.35v396.843c0,15.657,12.691,28.35,28.346,28.35h198.426c15.651,0,28.346-12.693,28.346-28.35
				V85.041C510.279,69.385,497.588,56.691,481.933,56.691L481.933,56.691z"/>
		</g>
		<path fill-rule="evenodd" clip-rule="evenodd" fill="#313232" d="M155.948,141.728v283.47c0,15.655,12.691,28.344,28.346,28.344
			h42.52v-28.346h-42.52V141.731h42.52v-28.346h-42.52C168.635,113.384,155.948,126.074,155.948,141.728L155.948,141.728z"/>
		<path fill-rule="evenodd" clip-rule="evenodd" fill="#313232" d="M56.736,198.425v170.076c0,15.66,12.691,28.348,28.347,28.348
			h42.519v-28.346h-42.52V198.424h42.52v-28.346H85.083C69.426,170.077,56.736,182.769,56.736,198.425L56.736,198.425z"/>
	</g>
</g>
</svg>
