<?xml version="1.0" encoding="utf-8"?>
<!-- Generator: Adobe Illustrator 17.0.0, SVG Export Plug-In . SVG Version: 6.00 Build 0)  -->
<!DOCTYPE svg PUBLIC "-//W3C//DTD SVG 1.1//EN" "http://www.w3.org/Graphics/SVG/1.1/DTD/svg11.dtd">
<svg version="1.1" xmlns="http://www.w3.org/2000/svg" xmlns:xlink="http://www.w3.org/1999/xlink" x="0px" y="0px"
	 width="566.929px" height="566.929px" viewBox="0 0 566.929 566.929" enable-background="new 0 0 566.929 566.929"
	 xml:space="preserve">
<g id="图层_1" display="none">
	<rect x="0.087" y="-0.002" display="inline" fill="#999999" width="566.929" height="566.929"/>
</g>
<g id="图层_2">
	<g>
		<path fill-rule="evenodd" clip-rule="evenodd" fill="#313232" d="M328.667,480.421H116.463V176.948h30.696v-29.814h-45.38
			c-8.358,0-15.133,6.78-15.133,15.132v332.835c0,8.358,6.774,15.133,15.138,15.133h242.036c8.361,0,15.138-6.775,15.138-15.129
			v-45.406h-30.291V480.421L328.667,480.421z"/>
		<path fill-rule="evenodd" clip-rule="evenodd" fill="#313232" d="M395.581,56.691H193.023c-8.358,0-15.134,6.774-15.134,15.13
			v332.953c0,8.358,6.775,15.13,15.133,15.13h272.302c8.355,0,15.134-6.773,15.134-15.13V140.804L395.581,56.691L395.581,56.691z
			 M389.146,86.486l60.514,60.535h-60.514V86.486L389.146,86.486z M450.201,389.288H208.145V86.611h150.812v60.442
			c0,16.717,13.55,30.269,30.272,30.269h60.972V389.288L450.201,389.288z"/>
		<path fill-rule="evenodd" clip-rule="evenodd" fill="#313232" d="M368.349,279.674h-24.52v-56.99
			c0-8.358-6.773-15.127-15.129-15.127c-8.357,0-15.128,6.772-15.128,15.127v56.99h-24.211c-7.827,0-9.774,4.575-4.351,10.218
			l32.619,33.944c0.325,0.338,0.661,0.658,1.005,0.96c1.479,1.318,3.218,2.351,5.131,3.011c5.538,1.945,11.902,0.621,16.314-3.971
			l32.619-33.944C378.121,284.249,376.175,279.674,368.349,279.674L368.349,279.674z"/>
	</g>
</g>
</svg>
