<?xml version="1.0" encoding="utf-8"?>
<!-- Generator: Adobe Illustrator 17.0.0, SVG Export Plug-In . SVG Version: 6.00 Build 0)  -->
<!DOCTYPE svg PUBLIC "-//W3C//DTD SVG 1.1//EN" "http://www.w3.org/Graphics/SVG/1.1/DTD/svg11.dtd">
<svg version="1.1" xmlns="http://www.w3.org/2000/svg" xmlns:xlink="http://www.w3.org/1999/xlink" x="0px" y="0px"
	 width="566.929px" height="566.929px" viewBox="0 0 566.929 566.929" enable-background="new 0 0 566.929 566.929"
	 xml:space="preserve">
<g id="图层_1" display="none">
	<rect x="0.087" y="0.079" display="inline" fill="#999999" width="566.929" height="566.929"/>
</g>
<g id="图层_2">
	<g>
		<g>
			<path fill="#313232" d="M199.609,116.772v19.974v30h30c32.294,0,63.56,6.329,92.929,18.811
				c28.758,12.223,54.243,29.444,75.746,51.185l0.116,0.118l0.118,0.116c21.742,21.503,38.963,46.988,51.185,75.746
				c12.482,29.37,18.811,60.636,18.811,92.93c0,22.137-2.974,43.79-8.865,64.681l-19.587-8.243
				c4.921-18.421,7.404-37.309,7.404-56.438c0-29.221-5.753-57.688-17.1-84.612c-10.648-25.527-26.795-49.537-46.702-69.444
				c-19.833-19.833-43.739-35.976-69.135-46.685l-0.059-0.025l-0.059-0.025c-27.181-11.325-55.713-17.068-84.803-17.068h-30v30
				v20.511l-81.021-60.766L199.609,116.772 M229.609,56.772L68.588,177.538l161.021,120.766v-80.511
				c26.031,0,50.721,5.367,73.265,14.76c22.275,9.393,42.67,23.348,59.578,40.255c16.907,16.907,30.862,37.303,40.255,59.846
				c9.393,22.275,14.76,46.965,14.76,72.996c0,26.032-5.367,50.721-14.76,73.265l74.606,31.399
				c13.687-32.204,21.201-67.629,21.201-104.664s-7.514-72.46-21.201-104.664c-13.687-32.204-33.278-61.188-57.699-85.341
				c-24.153-24.421-53.137-44.012-85.341-57.699c-32.204-13.687-67.629-21.201-104.664-21.201V56.772L229.609,56.772z"/>
		</g>
	</g>
</g>
</svg>
