<?xml version="1.0" encoding="utf-8"?>
<!-- Generator: Adobe Illustrator 17.0.0, SVG Export Plug-In . SVG Version: 6.00 Build 0)  -->
<!DOCTYPE svg PUBLIC "-//W3C//DTD SVG 1.1//EN" "http://www.w3.org/Graphics/SVG/1.1/DTD/svg11.dtd">
<svg version="1.1" xmlns="http://www.w3.org/2000/svg" xmlns:xlink="http://www.w3.org/1999/xlink" x="0px" y="0px"
	 width="566.929px" height="566.929px" viewBox="0 0 566.929 566.929" enable-background="new 0 0 566.929 566.929"
	 xml:space="preserve">
<g id="图层_1" display="none">
	<rect x="0.004" y="0.022" display="inline" fill="#999999" width="566.929" height="566.929"/>
</g>
<g id="图层_2">
	<g>
		<path fill-rule="evenodd" clip-rule="evenodd" fill="#313232" d="M475.551,510.259H91.385c-17.682,0-32.014-14.336-32.014-32.014
			V142.099c0-17.681,14.333-32.014,32.014-32.014h112.049c8.84,0,16.007,7.166,16.007,16.005c0,8.842-7.166,16.008-16.007,16.008
			H91.385v336.146h384.166V142.099H363.503c-8.841,0-16.007-7.167-16.007-16.008c0-8.839,7.167-16.005,16.007-16.005h112.049
			c17.681,0,32.014,14.332,32.014,32.014v336.146C507.565,495.923,493.232,510.259,475.551,510.259L475.551,510.259z
			 M374.821,324.145l-80.033,80.034l0,0h-0.001l0,0c-2.896,2.899-6.898,4.688-11.319,4.688c-4.42,0-8.421-1.789-11.317-4.688h-0.001
			l-80.035-80.034l22.638-22.637l52.708,52.708V72.721c0-8.839,7.168-16.005,16.007-16.005c8.841,0,16.008,7.167,16.008,16.005
			v281.495l52.708-52.708L374.821,324.145L374.821,324.145z"/>
	</g>
</g>
</svg>
