<?xml version="1.0" encoding="utf-8"?>
<!-- Generator: Adobe Illustrator 17.0.0, SVG Export Plug-In . SVG Version: 6.00 Build 0)  -->
<!DOCTYPE svg PUBLIC "-//W3C//DTD SVG 1.1//EN" "http://www.w3.org/Graphics/SVG/1.1/DTD/svg11.dtd">
<svg version="1.1" xmlns="http://www.w3.org/2000/svg" xmlns:xlink="http://www.w3.org/1999/xlink" x="0px" y="0px"
	 width="566.929px" height="566.929px" viewBox="0 0 566.929 566.929" enable-background="new 0 0 566.929 566.929"
	 xml:space="preserve">
<g id="图层_1" display="none">
	<rect x="0.02" y="0.022" display="inline" fill="#999999" width="566.929" height="566.929"/>
</g>
<g id="图层_2">
	<g>
		<path fill-rule="evenodd" clip-rule="evenodd" fill="#313232" d="M343.609,234.979c20.742-2.212,40.64,8.834,49.732,27.609
			c3.675,5.955,19.63,24.432,79.05,21.427l37.865-3.989v-160.57c0-10.827-8.776-19.589-19.602-19.589h-57.282
			c-10.827,0-19.588,8.776-19.588,19.589v25.116c0,10.813-8.776,19.603-19.602,19.603H173.6c-10.827,0-19.588-8.776-19.588-19.603
			v-25.116c0-10.827-8.776-19.589-19.602-19.589H76.301c-10.827,0-19.588,8.776-19.588,19.589v317.82l25.5-23.421
			c0.028-1.467,3.348-5.684,11.126-13.662c34.133-34.989,38.207-57.697,37.395-68.41c-0.608-2.156-1.069-4.35-1.382-6.568
			c-0.091-0.22-0.186-0.439-0.285-0.656l0.185-0.171c-2.59-21.309,8.84-41.861,28.307-50.902
			c19.468-9.041,42.544-4.515,57.153,11.212c6.126,6.638,10.043,14.517,11.838,22.723c2.465,6.966,9.73,21.455,29.489,31.042
			c7.564,2.564,14.587,6.995,20.371,13.277c17.556,9.128,27.993,27.831,26.543,47.565c-1.45,19.734-14.508,36.711-33.209,43.175
			c-18.701,6.464-39.456,1.174-52.781-13.454c-6.568-2.607-30.614-7.579-76.372,30.245l-55.345,50.987h405.407
			c10.827,0,19.602-8.776,19.602-19.589V353.35l-18.021,1.909c-0.855,1.14-5.955,2.564-16.953,4.331
			c-48.25,7.693-64.989,23.478-70.788,32.553c-0.794,2.106-1.727,4.158-2.792,6.14c-0.129,0.456-0.142,0.698-0.142,0.698
			l-0.285,0.028c-7.864,13.881-21.955,23.1-37.823,24.746c-13.037,1.388-26.092-2.459-36.292-10.695
			c-10.2-8.237-16.71-20.189-18.099-33.226c-0.925-8.702,0.501-17.494,4.131-25.458c2.151-7.123,4.872-22.979-5.214-42.325
			c-9.846-14.366-11.402-32.855-4.093-48.664C311.195,247.577,326.287,236.784,343.609,234.979L343.609,234.979z M272.166,307.72
			c-13.462,3.59-40.601-32.752-40.601-32.752c-18.22-20.643,33.962-41.186,42.509-34.903
			C282.608,246.333,285.6,304.144,272.166,307.72L272.166,307.72z"/>
		<path fill-rule="evenodd" clip-rule="evenodd" fill="#313232" d="M391.788,76.304c0-10.827-8.775-19.589-19.602-19.589H195.61
			c-10.827,0-19.588,8.775-19.588,19.589v47.112c0,10.813,8.761,19.589,19.588,19.589h176.562c10.827,0,19.602-8.776,19.602-19.589
			V76.304H391.788L391.788,76.304z"/>
	</g>
</g>
</svg>
